<svg id="Warstwa_1" xmlns="http://www.w3.org/2000/svg" width="57.6" height="29.1"><style>.st0{fill:#fff}</style><path class="st0" d="M5.4 5.1v7.1c0 .4.3.8.8.8h9.4c.4 0 .8.3.8.8v2.8c0 .4-.3.8-.8.8H6.2c-.4 0-.8.3-.8.8v10.3c0 .4-.3.8-.8.8H.8c-.4 0-.8-.3-.8-.8V.5C0 .2.2 0 .4 0h17.2c.4 0 .8.3.8.8v2.8c0 .4-.3.8-.8.8H6.2c-.4-.1-.8.3-.8.7z"/><path class="st0" d="M57.6.5l-8.8 28.3c0 .2-.2.3-.4.3h-4.3c-.2 0-.3-.1-.4-.3L37.5 9.2c-.2-.5-.3-1.1-.5-1.8-.1.3-.2.7-.2.9-.1.3-.2.6-.3.8l-6.3 19.6c-.1.2-.2.3-.4.3h-4.4c-.2 0-.3-.1-.4-.3L16.3.5c-.1-.2.1-.5.4-.5h4c.5 0 .9.1 1.2.3.3.2.5.5.6.9l5 17.4c.1.4.2.9.3 1.4.1.5.2 1 .3 1.6.1-.6.2-1.1.4-1.6.1-.5.3-1 .4-1.4l5.7-17.4c.1-.3.3-.6.6-.8.3-.3.7-.4 1.1-.4h1.6c.5 0 .9.1 1.1.3.3.2.5.5.7.9l5.7 17.4c.3.8.5 1.8.8 2.9.2-1.1.4-2 .6-2.9l5-17.4c.1-.3.3-.6.6-.9.3-.2.7-.3 1.1-.3h3.7c.3 0 .5.3.4.5z"/></svg>