<svg xmlns="http://www.w3.org/2000/svg" width="75.9" height="80.6"><linearGradient id="a" gradientUnits="userSpaceOnUse" x1="-1008.712" y1="-989.039" x2="-969.706" y2="-967.328" gradientTransform="matrix(.4452 -.5719 -.5701 -.3859 -99.097 -877.745)"><stop offset="0" stop-color="#6253e1"/><stop offset=".596" stop-color="#6253e1" stop-opacity=".4"/><stop offset="1" stop-color="#6253e1" stop-opacity="0"/></linearGradient><path d="M36.3 65.5l-10.2 15H8l-8-15 10.2-15h18.2l7.9 15z" fill="url(#a)"/><linearGradient id="b" gradientUnits="userSpaceOnUse" x1="-983.665" y1="-986.379" x2="-931.284" y2="-957.223" gradientTransform="matrix(.4452 -.5719 -.5701 -.3859 -99.097 -877.745)"><stop offset="0" stop-color="#6253e1"/><stop offset=".596" stop-color="#6253e1" stop-opacity=".4"/><stop offset="1" stop-color="#6253e1" stop-opacity="0"/></linearGradient><path d="M53 44.9L39.3 65.1H14.9L4.3 44.8 18 24.7h24.4L53 44.9z" fill="url(#b)"/><linearGradient id="c" gradientUnits="userSpaceOnUse" x1="-957.024" y1="-988.104" x2="-891.678" y2="-951.732" gradientTransform="matrix(.4452 -.5719 -.5701 -.3859 -99.097 -877.745)"><stop offset="0" stop-color="#6253e1"/><stop offset=".596" stop-color="#6253e1" stop-opacity=".4"/><stop offset="1" stop-color="#6253e1" stop-opacity="0"/></linearGradient><path d="M72.8 25.3L55.7 50.5l-30.4-.1-13.4-25.2L29 0l30.4.1 13.4 25.2z" fill="url(#c)"/><path fill="#fff" d="M57.2 25.2l-6.4 22.6-3.6-12.5v-.1h-.1l-.3-1.1-1.8.5 1.8-.5-3.7-.1-.4 1.2v.1l-3.6 12.5-6.4-22.5H14.6v31.2h4.3V39h11.6v-4.3H18.9v-5.2h10.6l7.7 27h3.9L45 42.9l3.9 13.6h3.9l8.5-30.1z"/></svg>