<?xml version="1.0" encoding="utf-8"?>
<!-- Generator: Adobe Illustrator 23.0.1, SVG Export Plug-In . SVG Version: 6.00 Build 0)  -->
<svg version="1.1" id="Warstwa_1" xmlns="http://www.w3.org/2000/svg" xmlns:xlink="http://www.w3.org/1999/xlink" x="0px" y="0px"
	 width="59.6px" height="29.1px" viewBox="0 0 59.6 29.1" style="enable-background:new 0 0 59.6 29.1;" xml:space="preserve">
<style type="text/css">
	.st0{fill:#B640D3;}
</style>
<path class="st0" d="M59.3,0h-3.7c-0.5,0-0.8,0.1-1.2,0.4c-0.3,0.2-0.5,0.5-0.6,0.9l-5,17.4c-0.2,0.9-0.4,1.8-0.6,2.9
	c-0.2-1.1-0.5-2-0.8-2.9L41.7,1.2c-0.1-0.4-0.4-0.7-0.7-0.9C40.8,0.1,40.4,0,39.9,0h-1.6c-0.5,0-0.8,0.1-1.2,0.4
	c-0.3,0.3-0.5,0.5-0.6,0.8l-5.7,17.4c-0.1,0.4-0.3,0.9-0.4,1.4c-0.1,0.5-0.2,1-0.4,1.6c-0.1-0.6-0.2-1.1-0.3-1.6
	c-0.1-0.5-0.2-1-0.3-1.4L25.9,6l-4.7,3.5l6,19.3c0,0.2,0.2,0.3,0.4,0.3h4.4c0.2,0,0.3-0.1,0.4-0.3l6.3-19.6c0.1-0.3,0.2-0.5,0.3-0.8
	c0.1-0.3,0.2-0.6,0.2-0.9c0.1,0.7,0.3,1.3,0.5,1.8l6.3,19.6c0.1,0.2,0.2,0.3,0.4,0.3h4.3c0.2,0,0.3-0.1,0.4-0.3l8.8-28.3
	C59.7,0.3,59.5,0,59.3,0z"/>
<path class="st0" d="M5.4,19.7V18c0-0.4,0.3-0.8,0.8-0.8h2.5l5.8-4.3H6.2c-0.4,0-0.8-0.3-0.8-0.8V5.1c0-0.4,0.3-0.8,0.8-0.8h11.4
	c0.4,0,0.8-0.3,0.8-0.8V0.8C18.4,0.3,18,0,17.6,0H0.4C0.2,0,0,0.2,0,0.4v23.3L5.4,19.7z"/>
<path class="st0" d="M19.1,9.6L23.9,6l-1.4-4.8c-0.1-0.4-0.3-0.7-0.6-0.9C21.5,0.1,21.1,0,20.7,0h-4c-0.3,0-0.4,0.3-0.4,0.5
	L19.1,9.6z"/>
<g>
	<path class="st0" d="M17.6,12.9h-1l-5.8,4.3h6.9c0.4,0,0.8-0.3,0.8-0.8v-2.8C18.3,13.3,18,12.9,17.6,12.9z"/>
	<path class="st0" d="M2,23.7v4.6c0,0.4,0.3,0.8,0.8,0.8h3.9c0.4,0,0.8-0.3,0.8-0.8v-8.7L2,23.7z"/>
</g>
</svg>
