<svg xmlns="http://www.w3.org/2000/svg" xmlns:xlink="http://www.w3.org/1999/xlink" height="62.196" width="104.93" id="Warstwa_1"><defs id="defs34"><linearGradient id="linearGradient6618"><stop id="stop6614" offset="0" stop-color="#666"/><stop id="stop6616" offset="1" stop-color="#666" stop-opacity="0"/></linearGradient><linearGradient id="SVGID_1_" gradientUnits="userSpaceOnUse" x1="41" y1="46" x2="65" y2="46"><stop offset="0" id="stop6451" stop-color="#6253e1"/><stop offset=".488" id="stop6453" stop-color="#9a18b6"/><stop offset="1" id="stop6455" stop-color="#9a18b6"/></linearGradient><linearGradient gradientUnits="userSpaceOnUse" y2="31.098" x2="83.563" y1="31.098" x1="21.367" id="linearGradient6620" xlink:href="#linearGradient6618"/><linearGradient y2="31.098" x2="83.563" y1="31.098" x1="21.367" gradientUnits="userSpaceOnUse" id="linearGradient6694" xlink:href="#linearGradient6618"/></defs><style id="style2"></style><linearGradient y2="46" x2="65" y1="46" x1="41" gradientUnits="userSpaceOnUse" id="SVGID_1_-4"><stop id="stop4" offset="0" stop-color="#6253e1"/><stop id="stop6" offset=".488" stop-color="#9a18b6"/><stop id="stop8" offset="1" stop-color="#9a18b6"/></linearGradient><path id="circle11" d="M52.465 0a31.098 31.098 0 0 0-31.098 31.098 31.098 31.098 0 0 0 31.098 31.097 31.098 31.098 0 0 0 17.828-5.636h-8.807v-3.223h12.672a31.098 31.098 0 0 0 .735-.807H64.307v-1.207H75.99a31.098 31.098 0 0 0 .625-.738H54.281v-2.148h23.936a31.098 31.098 0 0 0 .353-.538H52.135V45.75h27.724a31.098 31.098 0 0 0 3.704-14.652 31.098 31.098 0 0 0-.692-6.282l-10.346.067-.03-4.858 8.888-.056a31.098 31.098 0 0 0-.852-2.047l-14.662.031-.045-2.33 13.512-.027a31.098 31.098 0 0 0-.494-.842l-8.46.004-.044-.701 8.07-.006a31.098 31.098 0 0 0-.49-.764l-16.033.01-.106-1.639 14.89-.01a31.098 31.098 0 0 0-1.544-1.816l-4.23.027-.02-2.955 1.08-.006A31.098 31.098 0 0 0 52.465 0z" fill="url(#linearGradient6694)" fill-rule="evenodd"/><g transform="matrix(2.5915 0 0 2.5915 -80.287 -63.38)" id="g4896" stroke-width=".386" fill="#fff" font-weight="400" font-family="sans-serif" letter-spacing=".63" word-spacing="0"><path style="line-height:1.25" id="path4776" d="M33.604 35.584l-1.387-.5-.279.774 1.192.43-.117.323-1.192-.429-.475 1.32-.365-.13.988-2.743 1.751.63z"/><path style="line-height:1.25" id="path4778" d="M35.864 38.949l-.483-.143-.608-1.387-.524-.154-.327 1.111-.372-.11.824-2.796.783.231q.254.075.413.159.16.081.27.206.124.14.165.312.044.17-.022.393-.09.303-.302.462-.212.158-.509.183zm-.278-2.266q.036-.12.02-.225-.014-.106-.093-.199-.065-.078-.17-.131-.103-.056-.254-.1l-.437-.129-.311 1.056.375.11q.177.052.317.061.141.007.258-.05.108-.054.177-.144.072-.091.118-.25z"/><path style="line-height:1.25" id="path4780" d="M39.316 37.091q.131.23.161.528.033.298-.045.65-.078.351-.236.609-.155.256-.366.404-.22.154-.482.198-.26.044-.568-.024-.3-.066-.524-.22-.223-.154-.353-.382-.13-.227-.163-.523-.03-.296.048-.65.077-.347.23-.602.153-.257.373-.415.21-.15.48-.194.273-.044.567.022.306.067.526.223.223.153.352.376zm-.278 1.09q.123-.554-.06-.91-.18-.357-.61-.452-.435-.096-.75.15-.313.246-.436.8-.124.56.062.914.186.353.61.447.425.094.741-.147.319-.242.443-.802z"/><path style="line-height:1.25" id="path4782" d="M42.334 40.197l-.474-.07-.984-2.783-.384 2.58-.358-.054.429-2.884.594.089.897 2.54.35-2.355.358.053z"/><path style="line-height:1.25" id="path4784" d="M45.807 37.937l-1.038-.087-.214 2.562-.386-.032.214-2.562-1.038-.087.028-.343 2.463.206z"/><path style="line-height:1.25" id="path4786" d="M50.154 40.55l-1.92.024-.039-2.915 1.92-.025.006.345-1.533.02.01.799 1.533-.02.005.344-1.533.02.015 1.083 1.532-.02z"/><path style="line-height:1.25" id="path4788" d="M53.406 40.331l-.478.037-1.581-2.492.203 2.6-.362.028-.226-2.906.599-.047 1.442 2.275-.185-2.373.361-.028z"/><path style="line-height:1.25" id="path4790" d="M56.814 38.396q.059.393-.066.738-.123.345-.381.564-.18.151-.415.242-.234.09-.631.15l-.729.108-.43-2.884.721-.107q.422-.063.68-.038.258.023.446.104.322.14.532.421.21.282.273.702zm-.402.054q-.05-.339-.203-.554-.153-.214-.407-.313-.185-.072-.382-.08-.197-.01-.465.03l-.36.054.332 2.225.36-.054q.277-.041.476-.113.201-.071.357-.207.195-.17.268-.41.075-.241.024-.578z"/><path style="line-height:1.25" id="path4792" d="M62.365 35.562l.028 3.012-.422.114-1.221-2.177.051 2.492-.412.111-1.504-2.614.384-.103 1.223 2.18-.05-2.496.38-.103 1.226 2.205-.05-2.522z"/><path style="line-height:1.25" id="path4794" d="M66.138 37.318l-.39.137-.54-.671-1.189.418v.861l-.371.13.034-3.101.488-.172zm-1.152-.809l-.957-1.18-.009 1.52z"/><path style="line-height:1.25" id="path4796" d="M69.157 36.054l-.463.197-1.351-.686-.503.214.454 1.067-.357.151-1.14-2.682.75-.32q.244-.103.42-.14.175-.038.34-.012.185.03.325.136.142.103.233.318.124.29.061.548-.063.257-.277.465zm-1.654-1.573q-.049-.116-.128-.186-.078-.074-.198-.095-.1-.02-.214.006-.116.023-.26.085l-.42.178.431 1.013.36-.153q.17-.072.284-.155.113-.084.167-.203.048-.11.045-.223-.002-.116-.067-.268z"/><path style="line-height:1.25" id="path4798" d="M71.391 34.013q.077.152.08.337.005.183-.071.35-.084.183-.24.34-.153.156-.416.288-.281.142-.533.203-.25.06-.535.074l-.218-.434.024-.013q.28.065.584.025.304-.041.531-.156.322-.161.44-.372.12-.211.018-.412-.087-.173-.214-.213-.125-.04-.321.002-.149.03-.314.085-.164.054-.353.105-.383.1-.64.009-.256-.095-.399-.38-.164-.328.007-.675.17-.348.596-.562.275-.138.53-.2.256-.064.471-.075l.206.409-.025.012q-.212-.05-.496-.01-.284.036-.537.164-.279.14-.39.34-.11.2-.019.382.082.163.213.213.13.051.366-.006.125-.032.349-.101.224-.069.386-.104.329-.07.554.013.225.082.366.361z"/></g></svg>