<?xml version="1.0" encoding="utf-8"?>
<!-- Generator: Adobe Illustrator 23.0.1, SVG Export Plug-In . SVG Version: 6.00 Build 0)  -->
<svg version="1.1" id="Warstwa_1" xmlns="http://www.w3.org/2000/svg" xmlns:xlink="http://www.w3.org/1999/xlink" x="0px" y="0px"
	 width="91px" height="103px" viewBox="0 0 91 103" style="enable-background:new 0 0 91 103;" xml:space="preserve">
<g>
	<g>
		<circle cx="22.7" cy="22.6" r="11.1"/>
		<circle cx="36.7" cy="16.1" r="12.1"/>
		<circle cx="52.9" cy="17.5" r="10.7"/>
		<circle cx="71" cy="21.7" r="12.1"/>
		<circle cx="77.6" cy="32.8" r="10.2"/>
		<circle cx="56.2" cy="32.8" r="13.9"/>
		<circle cx="33.4" cy="32.3" r="13.5"/>
		<circle cx="15.3" cy="34.7" r="12.1"/>
	</g>
	<path d="M49.5,47.2c-1.3,0.5-2.8,0.1-3.5-1c-0.5,0.7-1.4,1.2-2.4,1.2c-0.6,0-1.2-0.2-1.6-0.5v19.4h8.4V46.6
		C50.2,46.8,49.9,47,49.5,47.2z"/>
	<path d="M46.2,84.8c-4.1,0-7.9-1-11.3-2.7c-1.7,3.4-3.7,6.6-6,9.7c3.9,4.9,10,8,16.8,8c7.3,0,13.8-3.6,17.7-9.1
		c-2-2.8-3.8-5.8-5.3-8.9C54.6,83.6,50.5,84.8,46.2,84.8z"/>
	<path d="M54.1,73.4c-1.9-5-3.2-10.4-3.9-15.9c-1.6-0.4-3.2-0.6-4.9-0.6c-1.1,0-2.2,0.1-3.3,0.3c-0.6,5.8-2,11.4-4,16.6
		c2.3,1.3,4.9,2,7.7,2C48.8,75.7,51.7,74.9,54.1,73.4z"/>
	<path d="M52.8,56.6c0.4,1.6,0.8,3.1,1.2,4.6c4.8,1.6,8,4.5,8,7.9c0,5-7.1,9-15.8,9c-8.7,0-15.8-4-15.8-9c0-3.4,3.3-6.4,8.2-7.9
		c0.4-1.5,0.8-3,1.2-4.6c-9.5,1.6-16.4,6.6-16.4,12.5c0,7.2,10.2,13,22.8,13S69,76.3,69,69.1C69,63.2,62.2,58.2,52.8,56.6z"/>
</g>
</svg>
