<?xml version="1.0" encoding="utf-8"?>
<!-- Generator: Adobe Illustrator 23.0.1, SVG Export Plug-In . SVG Version: 6.00 Build 0)  -->
<svg version="1.1" id="Warstwa_1" xmlns="http://www.w3.org/2000/svg" xmlns:xlink="http://www.w3.org/1999/xlink" x="0px" y="0px"
	 width="91px" height="103px" viewBox="0 0 91 103" style="enable-background:new 0 0 91 103;" xml:space="preserve">
<style type="text/css">
	.st0{fill:#FFFFFF;}
	.st1{fill:#B640D3;}
</style>
<g>
	<circle class="st0" cx="22.7" cy="22.6" r="11.1"/>
	<circle class="st0" cx="36.7" cy="16.1" r="12.1"/>
	<circle class="st0" cx="52.9" cy="17.5" r="10.7"/>
	<circle class="st0" cx="71" cy="21.7" r="12.1"/>
	<circle class="st0" cx="77.6" cy="32.8" r="10.2"/>
	<circle class="st0" cx="56.2" cy="32.8" r="13.9"/>
	<circle class="st0" cx="33.4" cy="32.3" r="13.5"/>
	<circle class="st0" cx="15.3" cy="34.7" r="12.1"/>
</g>
<path class="st0" d="M49.5,47.2c-1.3,0.5-2.8,0.1-3.5-1c-0.5,0.7-1.4,1.2-2.4,1.2c-0.6,0-1.2-0.2-1.6-0.5v19.4h8.4V46.6
	C50.2,46.8,49.9,47,49.5,47.2z"/>
<path class="st0" d="M46.2,84.8c-4.1,0-7.9-1-11.3-2.7c-1.7,3.4-3.7,6.6-6,9.7c3.9,4.9,10,8,16.8,8c7.3,0,13.8-3.6,17.7-9.1
	c-2-2.8-3.8-5.8-5.3-8.9C54.6,83.6,50.5,84.8,46.2,84.8z"/>
<path class="st0" d="M54.1,73.4c-1.9-5-3.2-10.4-3.9-15.9c-1.6-0.4-3.2-0.6-4.9-0.6c-1.1,0-2.2,0.1-3.3,0.3c-0.6,5.8-2,11.4-4,16.6
	c2.3,1.3,4.9,2,7.7,2C48.8,75.7,51.7,74.9,54.1,73.4z"/>
<path class="st0" d="M52.8,56.6c0.4,1.6,0.8,3.1,1.2,4.6c4.8,1.6,8,4.5,8,7.9c0,5-7.1,9-15.8,9c-8.7,0-15.8-4-15.8-9
	c0-3.4,3.3-6.4,8.2-7.9c0.4-1.5,0.8-3,1.2-4.6c-9.5,1.6-16.4,6.6-16.4,12.5c0,7.2,10.2,13,22.8,13S69,76.3,69,69.1
	C69,63.2,62.2,58.2,52.8,56.6z"/>
<g>
	<path class="st1" d="M68.5,16h-2.9c-0.4,0-0.6,0.1-0.9,0.3c-0.3,0.2-0.4,0.4-0.5,0.7l-3.8,13.4c-0.2,0.7-0.3,1.4-0.4,2.2
		c-0.2-0.8-0.4-1.6-0.6-2.2L55,16.9c-0.1-0.3-0.3-0.5-0.5-0.7C54.3,16.1,54,16,53.6,16h-1.2c-0.3,0-0.6,0.1-0.9,0.3
		c-0.2,0.2-0.4,0.4-0.5,0.6l-4.4,13.4c-0.1,0.3-0.2,0.7-0.3,1.1c-0.1,0.4-0.2,0.8-0.3,1.2c-0.1-0.4-0.2-0.8-0.2-1.2
		c-0.1-0.4-0.2-0.7-0.2-1.1l-2.7-9.7l-3.6,2.7l4.6,14.8c0,0.1,0.2,0.2,0.3,0.2h3.3c0.1,0,0.2-0.1,0.3-0.2l4.9-15.1
		c0.1-0.2,0.1-0.4,0.2-0.6c0.1-0.2,0.1-0.5,0.2-0.7c0.1,0.5,0.2,1,0.4,1.4l4.8,15.1c0,0.1,0.2,0.2,0.3,0.2h3.3
		c0.1,0,0.2-0.1,0.3-0.2l6.8-21.8C68.8,16.2,68.7,16,68.5,16z"/>
	<path class="st1" d="M27.2,31.1v-1.3c0-0.3,0.3-0.6,0.6-0.6h1.9l4.5-3.3h-6.4c-0.3,0-0.6-0.3-0.6-0.6v-5.4c0-0.3,0.3-0.6,0.6-0.6
		h8.7c0.3,0,0.6-0.3,0.6-0.6v-2.1c0-0.3-0.3-0.6-0.6-0.6H23.3c-0.2,0-0.3,0.1-0.3,0.3v17.9L27.2,31.1z"/>
	<path class="st1" d="M37.7,23.3l3.6-2.7l-1.1-3.7c-0.1-0.3-0.2-0.5-0.5-0.7c-0.2-0.2-0.5-0.3-0.9-0.3h-3.1c-0.2,0-0.3,0.2-0.3,0.4
		L37.7,23.3z"/>
	<path class="st1" d="M36.6,25.6h-0.8l-4.5,3.3h5.3c0.3,0,0.6-0.3,0.6-0.6v-2.1C37.2,25.8,36.9,25.6,36.6,25.6z"/>
	<path class="st1" d="M24.5,34.2v3.6c0,0.3,0.3,0.6,0.6,0.6h3c0.3,0,0.6-0.3,0.6-0.6v-6.7L24.5,34.2z"/>
</g>
</svg>
