<?xml version="1.0" encoding="UTF-8" standalone="no"?>
<svg
   xmlns:dc="http://purl.org/dc/elements/1.1/"
   xmlns:cc="http://creativecommons.org/ns#"
   xmlns:rdf="http://www.w3.org/1999/02/22-rdf-syntax-ns#"
   xmlns:svg="http://www.w3.org/2000/svg"
   xmlns="http://www.w3.org/2000/svg"
   xmlns:sodipodi="http://sodipodi.sourceforge.net/DTD/sodipodi-0.dtd"
   xmlns:inkscape="http://www.inkscape.org/namespaces/inkscape"
   id="Warstwa_1"
   width="59.709919"
   height="67.614777"
   version="1.1"
   sodipodi:docname="fw-logo-atomic-full-small.svg"
   inkscape:version="0.92.3 (2405546, 2018-03-11)">
  <metadata
     id="metadata35">
    <rdf:RDF>
      <cc:Work
         rdf:about="">
        <dc:format>image/svg+xml</dc:format>
        <dc:type
           rdf:resource="http://purl.org/dc/dcmitype/StillImage" />
        <dc:title></dc:title>
      </cc:Work>
    </rdf:RDF>
  </metadata>
  <defs
     id="defs33" />
  <sodipodi:namedview
     pagecolor="#ffffff"
     bordercolor="#666666"
     borderopacity="1"
     objecttolerance="10"
     gridtolerance="10"
     guidetolerance="10"
     inkscape:pageopacity="0"
     inkscape:pageshadow="2"
     inkscape:window-width="1920"
     inkscape:window-height="1017"
     id="namedview31"
     showgrid="false"
     fit-margin-top="0"
     fit-margin-left="0"
     fit-margin-right="0"
     fit-margin-bottom="0"
     inkscape:zoom="3.6158981"
     inkscape:cx="32.352182"
     inkscape:cy="16.715174"
     inkscape:window-x="1912"
     inkscape:window-y="-8"
     inkscape:window-maximized="1"
     inkscape:current-layer="Warstwa_1" />
  <style
     id="style2">.st0{fill:#fff}</style>
  <circle
     cx="13.762926"
     cy="13.127714"
     r="7.8342805"
     id="circle4"
     style="stroke-width:1" />
  <circle
     cx="23.643999"
     cy="8.5400715"
     r="8.5400715"
     id="circle6"
     style="stroke-width:1" />
  <circle
     cx="35.077812"
     cy="9.5281792"
     r="7.5519633"
     id="circle8"
     style="stroke-width:1" />
  <circle
     cx="47.852631"
     cy="12.492502"
     r="8.5400715"
     id="circle10"
     style="stroke-width:1" />
  <circle
     cx="52.510849"
     cy="20.32678"
     r="7.1990681"
     id="circle12"
     style="stroke-width:1" />
  <circle
     cx="37.406921"
     cy="20.32678"
     r="9.8104944"
     id="circle14"
     style="stroke-width:1" />
  <circle
     cx="21.31489"
     cy="19.973886"
     r="9.5281782"
     id="circle16"
     style="stroke-width:1" />
  <circle
     cx="8.5400715"
     cy="21.667784"
     r="8.5400715"
     id="circle18"
     style="stroke-width:1" />
  <path
     d="m 32.678123,30.490172 c -0.917528,0.352895 -1.976215,0.07058 -2.470268,-0.705791 -0.352896,0.494053 -0.988108,0.846949 -1.693899,0.846949 -0.423474,0 -0.846949,-0.141158 -1.129265,-0.352896 V 43.97078 h 5.928644 V 30.066697 c -0.141158,0.141158 -0.352896,0.282317 -0.635212,0.423475 z m -2.32911,26.537741 c -2.893743,0 -5.575749,-0.705791 -7.975438,-1.905636 -1.199845,2.39969 -2.611427,4.658221 -4.234746,6.846173 2.752584,3.458376 7.05791,5.646328 11.857288,5.646328 5.152274,0 9.739916,-2.540848 12.492501,-6.422698 -1.411582,-1.976215 -2.682006,-4.093588 -3.740692,-6.28154 -2.470269,1.270424 -5.364012,2.117373 -8.398913,2.117373 z"
     id="path20"
     inkscape:connector-curvature="0"
     style="stroke-width:1" />
  <path
     d="m 35.924762,48.981896 c -1.341003,-3.528955 -2.258532,-7.340227 -2.752585,-11.222077 -1.129266,-0.282316 -2.258531,-0.423475 -3.458376,-0.423475 -0.77637,0 -1.55274,0.07058 -2.32911,0.211738 -0.423475,4.093587 -1.411582,8.046017 -2.823164,11.71613 1.623319,0.917528 3.458375,1.411582 5.43459,1.411582 2.187952,-0.07058 4.234746,-0.635212 5.928645,-1.693898 z"
     id="path22"
     inkscape:connector-curvature="0"
     style="stroke-width:1" />
  <path
     d="m 35.007233,37.124607 c 0.282317,1.129266 0.564633,2.187952 0.846949,3.246639 3.387797,1.129265 5.646328,3.176059 5.646328,5.575748 0,3.528955 -5.011116,6.352119 -11.151497,6.352119 -6.140382,0 -11.151498,-2.823164 -11.151498,-6.352119 0,-2.399689 2.32911,-4.517062 5.787486,-5.575748 0.282317,-1.058687 0.564633,-2.117373 0.846949,-3.246639 -6.705014,1.129266 -11.574972,4.658221 -11.574972,8.822387 0,5.081696 7.199068,9.175283 16.092035,9.175283 8.892966,0 16.092034,-4.093587 16.092034,-9.175283 0,-4.164166 -4.799378,-7.693121 -11.433814,-8.822387 z"
     id="path24"
     inkscape:connector-curvature="0"
     style="stroke-width:1" />
  <path
     class="st0"
     d="m 17.362459,10.23397 v 4.375904 c 0,0.282317 0.211737,0.494054 0.494053,0.494054 h 5.858065 c 0.282317,0 0.494054,0.211737 0.494054,0.494054 v 1.764477 c 0,0.282317 -0.211737,0.494054 -0.494054,0.494054 h -5.858065 c -0.282316,0 -0.494053,0.211737 -0.494053,0.494054 v 6.352119 c 0,0.282316 -0.211738,0.494053 -0.494054,0.494053 h -2.39969 c -0.282316,0 -0.494053,-0.211737 -0.494053,-0.494053 V 7.2696477 c 0,-0.141158 0.141158,-0.211737 0.211737,-0.211737 h 10.728023 c 0.282317,0 0.494054,0.211737 0.494054,0.494054 v 1.764477 c 0,0.282316 -0.211737,0.494054 -0.494054,0.494054 h -7.05791 c -0.282316,-0.070579 -0.494053,0.141158 -0.494053,0.4234743 z"
     id="path26"
     inkscape:connector-curvature="0"
     style="fill:#ffffff;stroke-width:1" />
  <path
     class="st0"
     d="m 49.877642,7.4134227 -5.50517,17.6447753 c 0,0.07058 -0.141158,0.141158 -0.211737,0.141158 h -2.682006 c -0.07058,0 -0.211737,-0.07058 -0.211737,-0.141158 l -3.95243,-12.210184 c -0.141158,-0.282316 -0.211737,-0.635212 -0.282316,-1.129266 -0.07058,0.211738 -0.07058,0.423475 -0.141158,0.564633 -0.07058,0.211738 -0.07058,0.352896 -0.141159,0.494054 L 32.7975,24.987619 c 0,0.07058 -0.141158,0.141158 -0.211738,0.141158 h -2.682005 c -0.07058,0 -0.211738,-0.07058 -0.211738,-0.141158 L 24.257429,7.3428437 c -0.07058,-0.141158 0.07058,-0.282316 0.211737,-0.282316 h 2.470269 c 0.282316,0 0.564632,0.07058 0.705791,0.211737 0.141158,0.141158 0.352895,0.352896 0.423474,0.564633 l 3.105481,10.7986023 0.211737,0.846949 c 0.07058,0.282317 0.141158,0.635212 0.211737,0.988108 0.07058,-0.352896 0.141158,-0.705791 0.211737,-0.988108 0.07058,-0.282316 0.141159,-0.564632 0.282317,-0.846949 L 35.620664,7.8368977 c 0.07058,-0.211737 0.211737,-0.352895 0.423474,-0.494054 0.211738,-0.141158 0.423475,-0.211737 0.705791,-0.211737 h 0.988108 c 0.282316,0 0.564633,0.07058 0.705791,0.211737 0.211737,0.141159 0.352895,0.352896 0.423474,0.564633 l 3.528955,10.7986023 c 0.141158,0.494054 0.352896,1.129266 0.494054,1.764478 0.141158,-0.635212 0.211737,-1.270424 0.352895,-1.764478 L 46.348687,7.9074767 c 0.07058,-0.211737 0.211737,-0.423474 0.352895,-0.564633 0.141158,-0.141158 0.423475,-0.211737 0.705791,-0.211737 h 2.329111 c 0.07058,0 0.141158,0.141158 0.141158,0.282316 z"
     id="path28"
     inkscape:connector-curvature="0"
     style="fill:#ffffff;stroke-width:1" />
</svg>
