          <svg xmlns="http://www.w3.org/2000/svg" width="91" height="103"><style>.st0{fill:#fff}.st1{fill:#9b18b6}</style>
                                        <circle class="st0" cx="22.7" cy="22.6" r="11.1"/>
                                        <circle class="st0" cx="36.7" cy="16.1" r="12.1"/>
                                        <circle class="st0" cx="52.9" cy="17.5" r="10.7"/>
                                        <circle class="st0" cx="71" cy="21.7" r="12.1"/>
                                        <circle class="st0" cx="77.6" cy="32.8" r="10.2"/>
                                        <circle class="st0" cx="56.2" cy="32.8" r="13.9"/>
                                        <circle class="st0" cx="33.4" cy="32.3" r="13.5"/>
                                        <circle class="st0" cx="15.3" cy="34.7" r="12.1"/>
                                        <path class="st0" d="M49.5 47.2c-1.3.5-2.8.1-3.5-1-.5.7-1.4 1.2-2.4 1.2-.6 0-1.2-.2-1.6-.5v19.4h8.4V46.6c-.2.2-.5.4-.9.6zM46.2 84.8c-4.1 0-7.9-1-11.3-2.7-1.7 3.4-3.7 6.6-6 9.7 3.9 4.9 10 8 16.8 8 7.3 0 13.8-3.6 17.7-9.1-2-2.8-3.8-5.8-5.3-8.9-3.5 1.8-7.6 3-11.9 3z"/>
                                        <path class="st0" d="M54.1 73.4c-1.9-5-3.2-10.4-3.9-15.9-1.6-.4-3.2-.6-4.9-.6-1.1 0-2.2.1-3.3.3-.6 5.8-2 11.4-4 16.6 2.3 1.3 4.9 2 7.7 2 3.1-.1 6-.9 8.4-2.4z"/>
                                        <path  class="st0" d="M52.8 56.6c.4 1.6.8 3.1 1.2 4.6 4.8 1.6 8 4.5 8 7.9 0 5-7.1 9-15.8 9-8.7 0-15.8-4-15.8-9 0-3.4 3.3-6.4 8.2-7.9.4-1.5.8-3 1.2-4.6-9.5 1.6-16.4 6.6-16.4 12.5 0 7.2 10.2 13 22.8 13S69 76.3 69 69.1c0-5.9-6.8-10.9-16.2-12.5z"/>
                                        <path class="st1" d="M27.8 18.5v6.2c0 .4.3.7.7.7h8.3c.4 0 .7.3.7.7v2.5c0 .4-.3.7-.7.7h-8.3c-.4 0-.7.3-.7.7v9c0 .4-.3.7-.7.7h-3.4c-.4 0-.7-.3-.7-.7V14.3c0-.2.2-.3.3-.3h15.2c.4 0 .7.3.7.7v2.5c0 .4-.3.7-.7.7h-10c-.4-.1-.7.2-.7.6z"/>
                                        <path class="st1" d="M73.8 14.4l-7.8 25c0 .1-.2.2-.3.2h-3.8c-.1 0-.3-.1-.3-.2L56 22.1c-.2-.4-.3-.9-.4-1.6-.1.3-.1.6-.2.8-.1.3-.1.5-.2.7l-5.6 17.3c0 .1-.2.2-.3.2h-3.8c-.1 0-.3-.1-.3-.2l-7.7-25c-.1-.2.1-.4.3-.4h3.5c.4 0 .8.1 1 .3s.5.5.6.8l4.4 15.3.3 1.2c.1.4.2.9.3 1.4.1-.5.2-1 .3-1.4.1-.4.2-.8.4-1.2l5-15.3c.1-.3.3-.5.6-.7s.6-.3 1-.3h1.4c.4 0 .8.1 1 .3.3.2.5.5.6.8l5 15.3c.2.7.5 1.6.7 2.5.2-.9.3-1.8.5-2.5l4.4-15.3c.1-.3.3-.6.5-.8s.6-.3 1-.3h3.3c.1 0 .2.2.2.4z"/>
                                    </svg>