<svg id="Warstwa_1" xmlns="http://www.w3.org/2000/svg" width="78.6" height="89"><style>.st0{fill:#fff}.st1{fill:#9b18b6}</style><circle class="st0" cx="19.7" cy="19.9" r="9.5"/><circle class="st0" cx="31.6" cy="14.3" r="10.3"/><circle class="st0" cx="45.4" cy="15.5" r="9.1"/><circle class="st0" cx="60.9" cy="19.1" r="10.3"/><circle class="st0" cx="66.5" cy="28.6" r="8.7"/><circle class="st0" cx="48.3" cy="28.6" r="11.9"/><circle class="st0" cx="28.8" cy="28.2" r="11.5"/><circle class="st0" cx="13.3" cy="30.2" r="10.3"/><path class="st0" d="M42.5 40.9c-1.1.4-2.4.1-3-.9-.4.6-1.2 1-2 1-.5 0-1-.2-1.4-.4v16.6h7.2V40.4c-.2.2-.4.3-.8.5zM39.7 73c-3.5 0-6.7-.9-9.7-2.3-1.5 2.9-3.2 5.6-5.1 8.3 3.3 4.2 8.5 6.8 14.3 6.8 6.2 0 11.8-3.1 15.1-7.8-1.7-2.4-3.2-5-4.5-7.6C46.9 72 43.4 73 39.7 73z"/><path class="st0" d="M46.5 63.3c-1.6-4.3-2.7-8.9-3.3-13.6-1.4-.3-2.7-.5-4.2-.5-.9 0-1.9.1-2.8.3-.5 5-1.7 9.7-3.4 14.2 2 1.1 4.2 1.7 6.6 1.7 2.5-.2 5-.8 7.1-2.1z"/><path class="st0" d="M45.4 48.9c.3 1.4.7 2.6 1 3.9 4.1 1.4 6.8 3.8 6.8 6.7 0 4.3-6.1 7.7-13.5 7.7s-13.5-3.4-13.5-7.7c0-2.9 2.8-5.5 7-6.7.3-1.3.7-2.6 1-3.9-8.1 1.4-14 5.6-14 10.7 0 6.1 8.7 11.1 19.5 11.1s19.5-5 19.5-11.1c0-5-5.8-9.3-13.8-10.7z"/><path class="st1" d="M24 16.4v5.3c0 .3.3.6.6.6h7.1c.3 0 .6.3.6.6V25c0 .3-.3.6-.6.6h-7.1c-.3 0-.6.3-.6.6v7.7c0 .3-.3.6-.6.6h-2.9c-.3 0-.6-.3-.6-.6V12.8c0-.2.2-.3.3-.3h13c.3 0 .6.3.6.6v2.1c0 .3-.3.6-.6.6h-8.5c-.4 0-.7.2-.7.6z"/><path class="st1" d="M63.3 12.9l-6.7 21.4c0 .1-.2.2-.3.2h-3.2c-.1 0-.3-.1-.3-.2L48 19.5c-.2-.3-.3-.8-.3-1.4-.1.3-.1.5-.2.7-.1.3-.1.4-.2.6l-4.8 14.8c0 .1-.2.2-.3.2H39c-.1 0-.3-.1-.3-.2l-6.6-21.4c-.1-.2.1-.3.3-.3h3c.3 0 .7.1.9.3s.4.4.5.7l3.8 13.1.3 1c.1.3.2.8.3 1.2.1-.4.2-.9.3-1.2.1-.3.2-.7.3-1L46 13.4c.1-.3.3-.4.5-.6.3-.2.5-.3.9-.3h1.2c.3 0 .7.1.9.3.3.2.4.4.5.7l4.3 13.1c.2.6.4 1.4.6 2.1.2-.8.3-1.5.4-2.1L59 13.5c.1-.3.3-.5.4-.7.2-.2.5-.3.9-.3h2.8c.1 0 .2.2.2.4z"/></svg>