<svg xmlns="http://www.w3.org/2000/svg" width="845.348" height="831.115" viewBox="0 0 223.666 219.896"><g transform="translate(-196.265 -178.485)" fill-rule="evenodd"><path d="M308.098 178.485a111.833 109.95 0 0 0-87.653 41.858 26.358 26.358 0 0 1 6.233 16.979 26.358 26.358 0 0 1-26.358 26.357 26.358 26.358 0 0 1-1.056-.052 111.833 109.95 0 0 0-3 24.807 111.833 109.95 0 0 0 111.834 109.95 111.833 109.95 0 0 0 34.607-5.47 44.432 44.432 0 0 1 44.38-43.383 44.432 44.432 0 0 1 12.552 1.836 111.833 109.95 0 0 0 20.294-62.933 111.833 109.95 0 0 0-19.64-62.219 30.123 30.123 0 0 1-5.676.563 30.123 30.123 0 0 1-30.123-30.123 30.123 30.123 0 0 1 .147-2.93 111.833 109.95 0 0 0-56.541-15.24z" opacity=".98" fill="#b8b1e2"/><ellipse ry="7.116" rx="7.332" cy="285.44" cx="223.408" opacity=".98" fill="#b89ee2"/><ellipse ry="4.312" rx="4.444" cy="263.233" cx="393.192" opacity=".98" fill="#b89ee2"/><ellipse ry="5.607" rx="5.776" cy="265.389" cx="271.713" opacity=".98" fill="#b89ee2"/><ellipse ry="4.312" rx="4.444" cy="236.221" cx="360.363" opacity=".98" fill="#b89ee2"/><ellipse ry="6.037" rx="6.221" cy="327.809" cx="327.937" opacity=".98" fill="#b89ee2"/><ellipse ry="6.971" rx="7.183" cy="259.674" cx="316.012" opacity=".98" fill="#b89ee2"/><ellipse ry="7.915" rx="8.155" cy="214.25" cx="325.112" opacity=".98" fill="#b89ee2"/><ellipse ry="6.448" rx="6.646" cy="238.834" cx="382.785" opacity=".98" fill="#b89ee2"/><ellipse ry="4.604" rx="4.745" cy="263.664" cx="350.498" opacity=".98" fill="#b89ee2"/><ellipse ry="7.116" rx="7.332" cy="227.905" cx="251.928" opacity=".98" fill="#b89ee2"/><ellipse ry="5.607" rx="5.776" cy="-420.575" cx="68.202" transform="rotate(124.57)" opacity=".98" fill="#b89ee2"/><ellipse ry="6.037" rx="6.221" cy="-384.925" cx="102.025" transform="rotate(124.57)" opacity=".98" fill="#b89ee2"/><ellipse ry="4.991" rx="5.143" cy="-468.96" cx="132.764" transform="rotate(124.57)" opacity=".98" fill="#b89ee2"/><ellipse ry="4.604" rx="4.745" cy="-421.079" cx="152.439" transform="rotate(124.57)" opacity=".98" fill="#b89ee2"/><ellipse ry="7.116" rx="7.332" cy="-461.452" cx="48.775" transform="rotate(124.57)" opacity=".98" fill="#b89ee2"/><ellipse ry="7.116" rx="7.332" cy="-420.519" cx="112.204" transform="rotate(124.57)" opacity=".98" fill="#b89ee2"/><ellipse ry="11.543" rx="11.893" cy="-375.347" cx="35.051" transform="rotate(124.57)" opacity=".98" fill="#b89ee2"/><ellipse ry="9.983" rx="10.287" cy="323.926" cx="380.307" opacity=".98" fill="#b89ee2"/></g></svg>