<svg xmlns="http://www.w3.org/2000/svg" viewBox="0 0 84.667 26.458" height="100" width="320"><g fill-rule="evenodd"><path d="M12.447 0a7.185 7.185 0 0 1 .008.232A7.185 7.185 0 0 1 5.27 7.418 7.185 7.185 0 0 1 0 5.108v17.995a6.723 5.591 0 0 1 2.596-.439 6.723 5.591 0 0 1 6.357 3.794H27.64a5.658 4.66 0 0 1 4.844-2.263 5.658 4.66 0 0 1 4.13 1.48 5.272 4.99 0 0 1 3.018-.911 5.272 4.99 0 0 1 3.95 1.694h32.96a6.59 5.924 0 0 1-.126-1.131 6.59 5.924 0 0 1 6.59-5.925 6.59 5.924 0 0 1 1.61.188 7.855 7.522 0 0 1 .052-.047V2.176a4.311 4.311 0 0 1-3.712 2.128 4.311 4.311 0 0 1-3.21-1.442 7.305 6.946 0 0 1-6.85 4.556A7.305 6.946 0 0 1 63.59.472 7.305 6.946 0 0 1 63.615 0H12.447z" opacity=".98" fill="#b8b1e2"/><ellipse cx="25.628" cy="4.424" rx="4.072" ry="3.952" opacity=".98" fill="#b89ee2"/><ellipse cx="74.967" cy="21.429" rx="2.468" ry="2.395" opacity=".98" fill="#b89ee2"/><ellipse cx="13.653" cy="22.626" rx="3.208" ry="3.114" opacity=".98" fill="#b89ee2"/><ellipse cx="54.369" cy="13.525" rx="2.468" ry="2.395" opacity=".98" fill="#b89ee2"/><ellipse cx="13.174" cy="13.285" rx="3.455" ry="3.353" opacity=".98" fill="#b89ee2"/><ellipse cx="36.286" cy="19.034" rx="1.898" ry="1.842" opacity=".98" fill="#b89ee2"/><ellipse cx="45.388" cy="8.256" rx="2.856" ry="2.772" opacity=".98" fill="#b89ee2"/><ellipse cx="68.021" cy="13.645" rx="2.018" ry="1.958" opacity=".98" fill="#b89ee2"/><ellipse cx="51.256" cy="21.668" rx="2.635" ry="2.557" opacity=".98" fill="#b89ee2"/></g></svg>