<svg xmlns="http://www.w3.org/2000/svg" xmlns:xlink="http://www.w3.org/1999/xlink" height="1036.232" width="1533.79"><defs><clipPath id="a"><use xlink:href="#SVGID_3_" overflow="visible" width="100%" height="100%"/></clipPath></defs><path d="M0 0h1533.79v1036.232H0z" fill="#b380ff" fill-opacity=".392"/><path d="M158.723 203.303s-4.854 55.105 9.423 104.495c-.57.408-.857.816-1.428 1.224-23.13-43.267-58.82-63.676-58.82-63.676s18.273 45.716 49.112 73.88l-1.428 2.04c-35.12-13.47-70.528-2.447-70.528-2.447s27.697 19.184 60.82 20c-31.124 15.104-53.396 44.493-53.396 44.493s22.557-2.45 47.114-17.552c-1.142 11.837-.57 23.675 2 35.104-.573 1.632-.858 2.857-1.43 4.49-5.995-9.797-10.85-15.51-10.85-15.51s1.999 12.652 7.139 28.572c-2 8.57-3.427 15.51-4.283 20.41-14.563-6.94-27.126-7.757-27.126-7.757s14.848 18.37 34.835 26.532c-21.13 1.633-38.833 14.696-38.833 14.696s26.84 6.94 50.54-6.53c-21.986 18.367-34.835 53.063-34.835 53.063s25.698-16.329 39.404-48.982c-10.85 33.88-6.282 73.88-6.282 73.88s14.277-36.736 10.85-75.513c7.14 37.145 29.982 63.677 29.982 63.677s-5.996-39.186-25.413-65.31c6.853 6.94 14.277 12.246 21.416 15.51-1.428 2.042-2.285 3.675-2.285 3.675s2-.816 5.426-2.04c13.706 6.122 24.842 6.94 24.842 6.94s-4.855-6.125-12.85-12.656c13.706-7.755 33.123-21.225 48.256-44.083-22.272 43.267-23.985 101.637-23.985 101.637s18.275-30.205 26.84-71.84c1.714 43.676 14.85 79.596 14.85 79.596s7.137-55.105-6.57-104.087c18.56 45.308 53.397 71.432 53.397 71.432s-16.56-52.656-49.112-81.228c34.264 22.04 74.525 12.653 74.525 12.653s-37.12-29.39-76.24-22.45c37.12-14.694 64.248-62.044 64.248-62.044s-39.405 12.246-65.674 52.248c22.272-43.268 23.985-101.638 23.985-101.638s-18.275 30.206-26.84 71.84c-.572-11.837-1.714-22.858-3.427-33.063 7.424-1.224 11.707-2.857 11.707-2.857s-5.14-3.673-13.706-7.755c-4.283-21.634-9.708-36.33-9.708-36.33s-1.714 12.655-1.714 31.43c-1.998-.815-4.283-1.63-6.567-2.448a88.322 88.322 0 0 0-5.71-9.388c-1.714-2.45-3.427-4.49-5.14-6.123 21.415-15.102 35.406-33.88 35.406-33.88s-26.27 3.267-53.11 21.227c-3.14-1.225-6.567-2.04-9.708-2.45 18.56-38.37 23.7-80.82 23.7-80.82s-26.84 34.288-39.976 82.045c-1.428.408-2.57.817-3.997 1.225.285-52.248-18.846-97.556-18.846-97.556zm56.537 245.318c.285 0 .285 0 0 0 .285 0 .285 0 0 0zm28.84-36.736c-.286-.408-.572-1.225-.857-1.633v-.408l5.14 4.898c-1.428-.816-2.856-1.633-4.284-2.857zm-88.232 21.225c1.142 1.633 2.284 2.858 3.426 4.49 0 5.307 0 10.613.57 16.328-1.998-10.613-5.424-20-9.136-28.573 1.713 2.45 3.426 5.306 5.14 7.755zm19.702 17.144c1.142.408 2 .816 3.14 1.633-3.14 1.224-6.28 2.45-9.422 4.49 2.284-2.04 4.283-4.082 6.282-6.123zm60.82-24.49c4.568 0 9.137-.409 13.705-1.226-7.71 3.266-15.133 7.348-21.7 12.654 1.713-2.04 3.14-4.082 4.854-6.123 1.142-2.04 2.284-3.673 3.14-5.306zm10.85-32.656c.286-2.857.57-5.306.857-8.163 1.142 6.94 2.57 13.47 4.568 20.41-1.713-4.49-3.426-8.573-5.425-12.247zm-105.364 37.96c3.427 8.165 7.995 16.737 13.42 24.084-6.28-6.53-13.134-11.02-19.416-14.694a134.711 134.711 0 0 1 5.996-9.39zm39.405 33.472c10.28-.816 19.702-4.49 26.555-7.755-4.855 5.714-9.138 11.02-12.564 15.51-4.283-2.856-9.137-5.714-13.99-7.755z" class="st1" opacity=".5" fill="#ccc"/><path d="M338.613 453.111s-42.546-33.88-84.52-20.41c35.978 31.84 84.52 20.41 84.52 20.41z" class="st6" fill="#76a87a"/><g transform="matrix(1.53766 0 0 1 -74.67 -327.744)" stroke-width=".806"><ellipse transform="matrix(.99978 -.02083 .0102 .99995 0 0)" cx="152.52" cy="671.407" rx="54.544" ry="77.959" fill="#84725f"/><path class="st3" d="M126.78 623.296c17.132-25.715 45.686-26.531 63.675-1.632 17.989 24.49 18.56 65.31 1.142 91.025-17.133 25.715-45.686 26.532-63.675 1.632-17.704-24.49-18.275-65.309-1.143-91.025z" fill="#ccc"/><path class="st4" d="M163.9 674.728c1.142 1.224 1.427 3.265.57 4.898l-32.265 63.268c-.857 1.633-2.285 2.041-3.427.817-1.142-1.225-1.428-3.266-.57-4.899l32.265-63.268c.857-1.633 2.284-2.041 3.426-.816z" fill="#a2816d"/><path class="st5" d="M83.377 810.245s30.839-20.001 43.117-58.779c-27.412 15.511-43.117 58.779-43.117 58.779z" fill="#6a966d"/><path class="st5" d="M116.5 835.552s16.276-42.451 9.994-84.086c-15.42 35.92-9.994 84.086-9.994 84.086z" fill="#6a966d"/><path class="st5" d="M157.332 823.715s-7.138-47.35-31.41-72.249c5.14 41.227 31.41 72.249 31.41 72.249z" fill="#6a966d"/><path class="st5" d="M181.603 782.488s-25.699-31.838-55.395-31.022c21.13 28.573 55.395 31.022 55.395 31.022zM67.387 764.12s29.982-22.45 58.821-12.246c-25.127 20.818-58.82 12.246-58.82 12.246z" fill="#6a966d"/><path class="st5" d="M169.325 694.32s-30.838 20.001-43.117 58.779c27.412-15.103 43.117-58.779 43.117-58.779z" fill="#6a966d"/><path class="st5" d="M136.202 669.013s-16.276 42.451-9.994 84.086c15.42-35.512 9.994-84.086 9.994-84.086z" fill="#6a966d"/><path class="st5" d="M95.37 680.85s7.139 47.35 31.41 72.249c-5.14-41.227-31.41-72.249-31.41-72.249z" fill="#6a966d"/><path class="st5" d="M71.1 722.485s25.698 31.838 55.394 31.022c-21.13-28.981-55.395-31.022-55.395-31.022zm114.215 18.368s-29.982 22.45-58.821 12.246c25.127-21.226 58.82-12.246 58.82-12.246z" fill="#6a966d"/><path class="st4" d="M160.759 675.952c.57-1.633 1.998-2.449 3.426-1.633l49.97 33.063c1.142.817 1.713 2.858 1.142 4.898-.572 1.633-2 2.45-3.427 1.633L161.9 680.85c-1.141-.816-1.713-3.265-1.141-4.898z" fill="#a2816d"/><path class="st6" d="M281.542 802.49s-19.988-63.678-59.107-88.577c15.42 55.921 59.107 88.576 59.107 88.576z" fill="#76a87a"/><path class="st6" d="M294.962 649.828s-47.685 14.695-72.813 64.493c41.69-10.204 72.813-64.493 72.813-64.493z" fill="#76a87a"/><path class="st6" d="M253.273 600.03s-31.98 52.656-31.124 114.291c29.125-43.675 31.124-114.291 31.124-114.291z" fill="#76a87a"/><path class="st6" d="M234.999 834.736s-22.843-61.636-12.564-121.231c21.415 52.248 12.564 121.23 12.564 121.23zm-70.243-209.807s19.988 63.677 59.107 88.576c-15.42-55.921-59.107-88.576-59.107-88.576z" fill="#76a87a"/><path class="st6" d="M139.343 693.504s42.545 33.88 84.52 20.41c-35.693-31.84-84.52-20.41-84.52-20.41z" fill="#76a87a"/><path class="st6" d="M151.336 777.59s47.685-14.695 72.812-64.493c-41.403 10.204-72.812 64.493-72.812 64.493z" fill="#76a87a"/><path class="st6" d="M193.024 826.98s31.98-52.656 31.124-114.291c-29.125 44.084-31.124 114.291-31.124 114.291z" fill="#76a87a"/><path class="st6" d="M211.585 592.274s22.843 61.636 12.563 121.231c-21.7-51.84-12.563-121.23-12.563-121.23z" fill="#76a87a"/><path class="st4" d="M164.47 680.85c1.143-.816 1.714-3.265 1.143-4.898l-25.128-70.207c-.57-1.633-2.284-2.45-3.426-1.633-1.142.816-1.713 3.265-1.142 4.898l25.127 70.208c.571 2.04 2.284 2.449 3.427 1.632z" fill="#a2816d"/><path d="M73.384 536.354s48.827 28.164 69.386 87.76c-42.831-21.226-69.386-87.76-69.386-87.76z" class="st7" fill="#85bd8a"/><path d="M124.21 494.719s27.126 64.493 18.846 129.803c-25.7-54.289-18.846-129.803-18.846-129.803z" class="st7" fill="#85bd8a"/><path d="M188.17 509.414s-9.422 74.29-45.971 115.108c5.996-64.494 45.972-115.108 45.972-115.108z" class="st7" fill="#85bd8a"/><path d="M227.29 571.866s-38.548 51.431-85.091 53.064c31.98-46.941 85.09-53.064 85.09-53.064z" class="st7" fill="#85bd8a"/><path d="M50.54 609.827s47.4 32.655 92.23 14.286c-39.976-30.613-92.23-14.286-92.23-14.286zm161.616 100.005s-48.827-28.165-69.386-87.76c43.117 21.226 69.386 87.76 69.386 87.76z" class="st7" fill="#85bd8a"/><path d="M161.616 751.875s-27.127-64.493-18.846-129.803c25.413 53.88 18.846 129.803 18.846 129.803z" class="st7" fill="#85bd8a"/><path d="M97.37 736.772s9.422-74.29 45.971-115.108c-5.996 64.493-45.972 115.108-45.972 115.108z" class="st7" fill="#85bd8a"/><path d="M58.25 674.32s38.548-51.431 85.091-53.064c-31.98 46.941-85.09 53.064-85.09 53.064z" class="st7" fill="#85bd8a"/><path d="M235 636.359s-47.4-32.655-92.23-14.287C182.746 652.686 235 636.36 235 636.36z" class="st7" fill="#85bd8a"/></g><path class="st1" d="M1490.095 673.178l-96.935-21.856c-3.064-.69-6.298.672-8.966 3.418-1.232-3.625-3.57-6.244-6.633-6.935l-98.05-22.107c-5.57-1.256-11.831 4.445-13.626 12.41l-46.147 204.668c-1.796 7.964 1.413 15.8 6.984 17.057l98.049 22.107c3.064.69 6.298-.672 8.966-3.418 1.232 3.625 3.569 6.244 6.633 6.935l96.934 21.856c5.57 1.256 11.743-4.048 13.628-12.41l46.147-204.668c1.885-8.362-1.414-15.8-6.984-17.057z" opacity=".5" fill="#ccc"/><path class="st19" d="M1318.083 867.461l-98.048-22.108c-5.571-1.256-8.78-9.092-6.985-17.056l46.147-204.669c1.796-7.964 8.057-13.665 13.628-12.41l98.049 22.108c5.57 1.256 8.78 9.093 6.984 17.057l-46.146 204.668c-1.796 7.964-7.78 13.728-13.63 12.41z" fill="#646d78"/><path d="M1337.477 604.267c-2.962-.228-5.153 1.886-5.748 3.257-.594 1.37-11.352 41.478-12.494 45.875l.082.402c-.15 2.113.466 6.57 4.197 9.141 3.81 2.971 6.4-.057 7.11-2.285l9.382-33.992-.082-.4c-.046-1.657-.42-4.913-2.786-6.515-2.728-1.941-4.64.114-5.234 1.486l-6.189 22.51 2.006 1.257 6.189-22.51c.197-.458.874-1.428 2.238-.456 1.002.628 1.41 2.628 1.211 3.085l-9.183 33.535s-1.388 3.2-4.197.857c-2.728-1.944-2.821-5.257-2.623-5.714 4.848-17.653 11.982-44.105 12.296-45.42.117-.856 2.424-3.826 6.517-.912 3.368 2.229 3.147 6.856 3.112 8.112l-9.614 35.707c-.118.858.045 1.658.687 1.942.64.287 1.2.173 1.317-.684l9.616-35.707-.082-.4c.267-2.97-.316-8.684-4.688-11.541-.64-.286-1.841-.457-3.042-.629z" fill="#f37665"/><path class="st19" d="M1430.895 892.897l-96.934-21.857c-5.571-1.256-8.87-8.694-6.985-17.056l46.147-204.669c1.795-7.964 7.779-13.728 13.628-12.41l96.934 21.857c5.57 1.256 8.87 8.694 6.985 17.056l-46.147 204.67c-2.074 7.9-8.057 13.664-13.628 12.41z" fill="#646d78"/><path class="st20" d="M1318.109 858.261l-91.642-20.663c-5.293-1.193-8.124-8.108-6.42-15.674l42.647-189.139c1.705-7.565 7.23-12.596 12.523-11.403l91.642 20.663c5.292 1.193 8.124 8.108 6.418 15.673l-42.645 189.14c-1.616 7.167-7.23 12.596-12.523 11.403z" fill="#e7e9ee"/><path class="st20" d="M1428.135 883.068l-91.642-20.662c-5.293-1.193-8.124-8.108-6.418-15.674l42.645-189.14c1.706-7.565 7.23-12.596 12.523-11.402l91.642 20.662c5.293 1.194 8.124 8.108 6.418 15.674l-42.645 189.14c-1.337 7.23-7.23 12.596-12.523 11.402z" fill="#e7e9ee"/><path d="M1378.008 683.472l-21.17-4.773c-1.392-.314-2.426-2.22-1.887-4.61l.538-2.389c.45-1.99 2.012-3.73 3.684-3.354l21.17 4.774c1.392.314 2.425 2.22 1.887 4.61l-.54 2.39c-.538 2.388-2.011 3.73-3.682 3.352zm-5.477 24.29l-21.17-4.773c-1.392-.314-2.426-2.22-1.887-4.61l.539-2.39c.449-1.99 2.012-3.73 3.683-3.353l21.17 4.773c1.392.314 2.426 2.22 1.887 4.61l-.538 2.39c-.54 2.39-2.012 3.73-3.684 3.353zm-5.925 26.28l-21.17-4.773c-1.392-.314-2.426-2.22-1.887-4.61l.538-2.389c.45-1.99 2.012-3.73 3.684-3.354l21.17 4.773c1.392.314 2.425 2.221 1.887 4.61l-.54 2.39c-.538 2.39-2.011 3.73-3.682 3.353zm-5.477 24.29l-21.17-4.773c-1.392-.314-2.426-2.22-1.887-4.61l.539-2.39c.449-1.99 2.012-3.73 3.683-3.353l21.17 4.773c1.392.314 2.426 2.22 1.887 4.61l-.538 2.39c-.54 2.39-2.012 3.73-3.684 3.353zm-5.746 25.484l-21.17-4.773c-1.392-.314-2.425-2.22-1.887-4.61l.539-2.39c.449-1.99 2.012-3.73 3.683-3.353l21.17 4.773c1.393.314 2.426 2.22 1.887 4.61l-.538 2.39c-.54 2.39-2.012 3.73-3.684 3.353zm-5.736 26.741l-21.17-4.773c-1.393-.314-2.426-2.22-1.887-4.61l.538-2.389c.449-1.99 2.012-3.73 3.683-3.354l21.17 4.773c1.393.314 2.426 2.221 1.888 4.61l-.54 2.39c-.448 1.99-2.29 3.667-3.682 3.353zm-5.845 24.625l-21.17-4.773c-1.392-.314-2.426-2.22-1.887-4.61l.538-2.39c.45-1.99 2.012-3.73 3.684-3.353l21.17 4.773c1.392.314 2.426 2.221 1.887 4.61l-.54 2.39c-.538 2.388-2.011 3.73-3.682 3.353z" fill="#846f5c"/><g stroke-width=".293"><path class="st22" d="M1347.314 669.02l-77.715-17.523c-1.114-.251-1.68-1.634-1.321-3.227s1.464-2.6 2.578-2.348l77.715 17.522c1.114.252 1.68 1.635 1.321 3.227-.359 1.593-1.464 2.6-2.578 2.348zm-2.963 13.14l-77.714-17.523c-1.115-.251-1.681-1.634-1.322-3.227.36-1.593 1.464-2.599 2.578-2.348l77.715 17.523c1.115.25 1.68 1.634 1.322 3.227-.36 1.592-1.464 2.598-2.579 2.347zm-2.962 13.14l-77.715-17.523c-1.114-.251-1.68-1.634-1.322-3.227.36-1.593 1.465-2.599 2.579-2.347l77.715 17.522c1.114.251 1.68 1.634 1.321 3.227-.36 1.593-1.464 2.599-2.578 2.347zm-3.053 13.538l-77.715-17.522c-1.114-.252-1.68-1.635-1.321-3.227.359-1.593 1.464-2.6 2.578-2.348l77.715 17.522c1.114.251 1.68 1.634 1.321 3.227-.269 1.195-1.464 2.6-2.578 2.348z" fill="#dcdbde"/><path class="st23" d="M1335.284 722.376l-77.715-17.522c-1.114-.251-1.68-1.634-1.322-3.227.36-1.593 1.464-2.599 2.579-2.348l77.715 17.523c1.114.25 1.68 1.634 1.32 3.227-.358 1.592-1.463 2.598-2.577 2.347zm-2.963 13.14l-77.715-17.522c-1.114-.251-1.68-1.634-1.321-3.227s1.464-2.599 2.578-2.347l77.715 17.522c1.114.251 1.68 1.634 1.321 3.227s-1.464 2.599-2.578 2.347z" fill="#8ed2e9"/><path class="st22" d="M1329.268 749.055l-77.715-17.522c-1.114-.252-1.68-1.635-1.32-3.227.358-1.593 1.463-2.6 2.577-2.348l77.715 17.522c1.114.251 1.68 1.634 1.322 3.227-.36 1.593-1.464 2.6-2.579 2.348zm-2.962 13.14l-77.715-17.522c-1.114-.251-1.68-1.634-1.322-3.227.36-1.593 1.464-2.6 2.579-2.348l77.715 17.522c1.114.252 1.68 1.635 1.32 3.227-.358 1.593-1.463 2.6-2.577 2.348zm-3.412 15.131l-77.715-17.522c-1.114-.251-1.68-1.634-1.321-3.227s1.464-2.599 2.578-2.348l77.715 17.523c1.114.25 1.68 1.634 1.321 3.227-.27 1.194-1.464 2.598-2.578 2.347zm-2.963 13.14l-77.715-17.522c-1.114-.251-1.68-1.634-1.321-3.227.36-1.593 1.464-2.599 2.578-2.348l77.715 17.523c1.114.251 1.68 1.634 1.322 3.227-.27 1.194-1.465 2.599-2.579 2.347zm-2.962 13.14l-77.715-17.522c-1.115-.25-1.68-1.634-1.322-3.227.36-1.592 1.464-2.599 2.579-2.347l77.714 17.522c1.115.251 1.68 1.634 1.322 3.227-.36 1.593-1.464 2.599-2.578 2.348zm-2.963 13.14l-77.715-17.522c-1.114-.25-1.68-1.634-1.321-3.226.359-1.593 1.464-2.6 2.578-2.348l77.715 17.522c1.114.251 1.68 1.634 1.321 3.227-.36 1.593-1.464 2.599-2.578 2.348zm-3.143 13.937l-77.714-17.522c-1.115-.251-1.68-1.634-1.322-3.227.36-1.593 1.464-2.599 2.579-2.348l77.714 17.523c1.115.251 1.68 1.634 1.322 3.227-.36 1.592-1.464 2.599-2.579 2.347zm158.734-134.093l-77.715-17.522c-1.114-.252-1.68-1.634-1.322-3.227.36-1.593 1.465-2.6 2.579-2.348l77.715 17.522c1.114.252 1.68 1.635 1.321 3.227-.36 1.593-1.464 2.6-2.578 2.348z" fill="#dcdbde"/><path class="st24" d="M1466.634 709.73l-77.715-17.522c-1.114-.251-1.68-1.634-1.321-3.227s1.464-2.599 2.578-2.348l77.715 17.523c1.114.25 1.68 1.634 1.321 3.227-.359 1.592-1.464 2.598-2.578 2.347zm-2.963 13.14l-77.715-17.522c-1.114-.251-1.68-1.634-1.321-3.227.36-1.593 1.464-2.599 2.578-2.348l77.715 17.523c1.114.251 1.68 1.634 1.322 3.227-.36 1.592-1.465 2.599-2.579 2.347zm-3.052 13.539l-77.715-17.523c-1.114-.25-1.68-1.634-1.322-3.226.36-1.593 1.465-2.6 2.579-2.348l77.715 17.522c1.114.251 1.68 1.634 1.321 3.227-.27 1.195-1.464 2.599-2.578 2.348z" fill="#a1d469"/><path class="st22" d="M1457.566 749.947l-77.715-17.522c-1.114-.251-1.68-1.634-1.321-3.227.36-1.593 1.464-2.599 2.578-2.348l77.715 17.523c1.114.25 1.68 1.634 1.321 3.227-.359 1.592-1.464 2.598-2.578 2.347zm-2.963 13.14l-77.714-17.522c-1.115-.251-1.68-1.634-1.322-3.227.36-1.593 1.464-2.599 2.578-2.348l77.715 17.523c1.115.251 1.68 1.634 1.322 3.227-.36 1.592-1.464 2.599-2.579 2.347zm-3.052 13.539l-77.715-17.523c-1.114-.25-1.68-1.634-1.321-3.226.359-1.593 1.464-2.6 2.578-2.348l77.715 17.522c1.114.251 1.68 1.634 1.321 3.227s-1.464 2.599-2.578 2.348zm-2.963 13.14l-77.715-17.522c-1.114-.252-1.68-1.635-1.321-3.227.36-1.593 1.464-2.6 2.578-2.348l77.715 17.522c1.114.252 1.68 1.635 1.321 3.227-.359 1.593-1.464 2.6-2.578 2.348zm-3.411 15.131l-77.715-17.522c-1.115-.251-1.68-1.634-1.322-3.227.36-1.593 1.464-2.599 2.579-2.348l77.714 17.523c1.115.25 1.681 1.634 1.322 3.226-.27 1.195-1.464 2.6-2.578 2.348zm-2.963 13.14l-77.715-17.522c-1.114-.251-1.68-1.634-1.321-3.227s1.464-2.599 2.578-2.348l77.715 17.523c1.114.25 1.68 1.634 1.321 3.227-.27 1.194-1.464 2.599-2.578 2.347zm-2.963 13.14l-77.715-17.522c-1.114-.251-1.68-1.634-1.321-3.227.359-1.592 1.464-2.599 2.578-2.347l77.715 17.522c1.114.251 1.68 1.634 1.321 3.227s-1.464 2.599-2.578 2.348zm-2.963 13.14l-77.715-17.522c-1.114-.25-1.68-1.634-1.32-3.227.358-1.592 1.463-2.598 2.577-2.347l77.715 17.522c1.114.251 1.68 1.634 1.322 3.227-.36 1.593-1.464 2.599-2.579 2.348zm-3.142 13.937l-77.715-17.522c-1.114-.251-1.68-1.634-1.321-3.227s1.464-2.599 2.578-2.348l77.715 17.523c1.114.25 1.68 1.634 1.321 3.227-.359 1.592-1.464 2.599-2.578 2.347z" fill="#dcdbde"/></g><path d="M690.244 421.438c-13.42 0-24.556 15.513-24.556 35.106v11.427c0 19.185 10.85 35.104 24.556 35.104h172.752c13.706 0 24.557-15.51 24.557-35.104v-11.427c0-19.185-10.85-35.106-24.557-35.106z" opacity=".5" fill="#ccc"/><path d="M859.222 499.943H686.469c-13.706 0-24.556-15.919-24.556-35.103v-11.43c0-19.592 11.136-35.103 24.556-35.103H859.22c13.706 0 24.556 15.92 24.556 35.103v11.43c.286 19.184-10.85 35.103-24.556 35.103z" fill="#858687"/><path d="M1148.474 133.802c-78.238-.408-156.476-.816-234.714-.816H644.496c-82.236.408-164.757.816-246.992.816 39.404 104.495 78.809 208.582 118.213 313.078 2.856 7.755 8.566 12.245 14.563 12.245h485.418c5.996 0 11.707-4.898 14.562-12.245 39.405-104.496 78.81-208.99 118.214-313.078z" fill="#63676e"/><path d="M521.999 410.96l-92.23-243.687h686.153l-93.086 243.686z" fill="#b0e1ed"/><path class="st46" d="M1016.269 404.428h-486.56c-26.27-76.738-52.825-153.477-79.095-230.624h644.75c-26.556 76.74-52.826 153.478-79.095 230.624z" fill="#fff"/><path d="M1091.08 186.458H454.897c-1.428-4.082-2.855-8.572-4.283-12.654h644.75c-1.428 4.082-2.856 8.572-4.284 12.654z" fill="#afa1a9"/><path class="st48" d="M1086.512 199.52H459.466a236.862 236.862 0 0 0-4.57-13.062h636.184c-1.427 4.49-3.14 8.572-4.568 13.062z" fill="#dbdbdb"/><path class="st49" d="M1088.796 192.99H457.18c-.856-2.04-1.427-4.49-2.284-6.53h636.183c-.856 2.04-1.427 4.49-2.284 6.53z" opacity=".2" fill="#dbdbdb"/><path class="st48" d="M1033.687 185.234h14.562c1.142-3.674 2.285-7.756 3.427-11.43h-16.847c-.857 2.858-1.713 5.715-2.284 8.572-.857 1.633 0 2.858 1.142 2.858z" fill="#dbdbdb"/><path class="st49" d="M1033.116 179.52h16.847c.57-2.04 1.142-3.675 1.713-5.716h-16.847c-.857 2.041-1.428 3.674-1.713 5.715z" opacity=".2" fill="#dbdbdb"/><path class="st48" d="M1069.094 173.804h-16.847c-1.142 3.674-2.284 7.756-3.427 11.43h16.847c.857-4.082 1.999-7.756 3.427-11.43z" fill="#dbdbdb"/><path class="st49" d="M1050.249 179.52h16.846c.57-2.04 1.142-3.675 1.713-5.716h-16.847c-.57 2.041-1.142 3.674-1.713 5.715z" opacity=".2" fill="#dbdbdb"/><g fill="#f37767" stroke-width=".293"><path d="M1080.23 185.234h-14.563c1.142-3.674 2.285-7.756 3.712-11.43h16.847c-.857 2.858-1.999 5.715-2.855 8.572-.571 1.633-2 2.858-3.141 2.858z"/><path d="M1067.38 179.519h16.847a45.372 45.372 0 0 1 2-5.715h-16.848c-.57 2.041-1.427 3.674-1.999 5.715z" opacity=".2"/></g><path class="st46" d="M1077.659 182.377c-.285.407-.856.407-.856 0-.856-1.633-2-3.266-2.855-4.899-.286-.408 0-.816.286-1.224.285-.409.856-.409.856 0 .857 1.632 1.999 3.265 2.855 4.898.286.408 0 .816-.285 1.224z" fill="#fff"/><path class="st46" d="M1072.235 182.377c0 .407.57.407.856 0l5.997-4.899c.285-.408.57-.816.57-1.224 0-.409-.57-.409-.856 0l-5.996 4.898c-.571.408-.857.816-.571 1.224z" fill="#fff"/><path d="M1061.669 181.968h-7.423c.57-1.633 1.142-3.674 1.713-5.306h7.424c-.571 1.632-1.142 3.673-1.713 5.306z" stroke-miterlimit="10" fill="none" stroke="#fff" stroke-width=".345" stroke-linecap="round" stroke-linejoin="round"/><path class="st46" d="M1044.252 182.784h-7.424c-.286 0-.571-.408-.286-.816 0-.408.57-.816.857-.816h7.424c.285 0 .57.408.285.816s-.57.816-.856.816z" fill="#fff"/><path d="M481.452 194.214h-18.56c-.57 0-1.427-.817-1.427-1.225-.286-.816 0-1.224.57-1.224h18.56c.572 0 1.143.816 1.428 1.224.572.816.286 1.225-.57 1.225zm20.274 0h-13.42c-.572 0-1.143-.817-1.428-1.225-.286-.816 0-1.224.57-1.224h13.42c.572 0 1.143.816 1.429 1.224.285.816 0 1.225-.571 1.225zm24.27 0h-18.56c-.57 0-1.142-.817-1.427-1.225-.286-.816 0-1.224.57-1.224h18.56c.572 0 1.143.816 1.429 1.224.285.816 0 1.225-.571 1.225zm21.702 0h-16.276c-.571 0-1.142-.409-1.142-1.225-.286-.816 0-1.224.57-1.224h16.277c.57 0 1.142.408 1.142 1.224.285.408 0 1.225-.571 1.225z" fill="#bfbfbf"/><g stroke-width=".293"><path d="M1016.269 404.428c23.414-68.166 46.828-136.741 70.243-204.908h-6.568c-22.843 68.167-45.972 136.742-68.815 204.908z" fill="#f0f0f0"/><path class="st48" d="M1031.974 353.405h-2.285c-.856 0-1.142-1.224-.856-2.449 10.85-32.654 21.986-65.31 33.122-97.964.571-1.224 1.713-2.449 2.57-2.449h2.57c.857 0 1.428 1.225.857 2.45-11.137 32.654-22.558 65.309-33.694 97.963-.286 1.225-1.428 2.45-2.284 2.45z" fill="#dbdbdb"/></g><path d="M700.462 255.85h-208.16c-5.14-15.51-10.28-31.43-15.418-46.94h219.58c1.428 15.51 2.855 31.02 3.998 46.94z" fill="#fffdcc"/><path class="st56" d="M1034.258 232.175h-83.38c1.714-7.756 3.142-15.51 4.855-23.675h85.662c-2.57 8.164-4.854 15.92-7.138 23.675z" fill="#b380ff" fill-opacity=".392"/><path class="st24" d="M1011.986 341.977H520.57l-23.985-73.474h538.243c-7.424 24.491-15.134 48.982-22.843 73.473z" fill="#8fcc9d"/><path class="st22" d="M935.747 217.072H710.74c-1.428 0-2.855-1.633-2.855-3.674 0-2.04.856-3.673 2.57-3.673h226.718c1.428 0 2.285 1.632 1.999 3.673-.571 2.041-1.999 3.674-3.426 3.674zm-2.285 11.837h-222.15c-1.428 0-2.855-1.632-2.855-3.673 0-2.041.856-3.674 2.284-3.674h223.863c1.428 0 2.285 1.633 2 3.674-.286 2.04-1.714 3.673-3.142 3.673zm-2.284 12.654H712.454c-1.427 0-2.57-1.633-2.855-3.674 0-2.04.856-3.673 2.284-3.673H932.32c1.428 0 2.284 1.632 1.999 3.673-.286 2.041-1.713 3.674-3.141 3.674zm-2.284 13.062H713.31c-1.428 0-2.57-1.633-2.856-3.674 0-2.04.857-3.673 2.285-3.673h217.296c1.427 0 2.284 1.632 1.999 3.673-.286 2.041-1.714 3.674-3.141 3.674zM908.05 363.61H625.078c-1.142 0-2.57-1.633-2.855-3.674-.286-2.04.285-3.673 1.427-3.673h285.826c1.142 0 1.999 1.632 1.713 3.673-.571 2.041-1.999 3.674-3.14 3.674zm-39.69 15.92H665.054c-1.143 0-2-1.225-2.285-2.858 0-.408 0-.817-.285-.817-.286-1.632.285-2.857 1.427-2.857H868.93c1.142 0 1.713 1.225 1.428 2.857v.817c0 1.633-1.142 2.857-1.999 2.857z" fill="#dcdbde" stroke-width=".293"/><path d="M1137.338 112.985H408.354c-5.996 0-11.136 6.94-11.136 15.92v4.897h750.97v-4.898c.286-8.98-4.568-15.919-10.85-15.919zM530.279 459.125h485.133c5.997 0 11.707-4.898 14.563-12.654l7.71-20.409c-176.75 0-353.214 0-529.963.408 2.57 6.531 5.14 13.47 7.71 20.001 3.14 7.756 8.85 12.654 14.848 12.654z" fill="#e5e8ec"/><g stroke-width=".228"><path class="st26" d="M1016.697 758.03H533.535c-4.71 0-8.477-3.265-8.477-7.347V556.796h500.115v193.887c0 4.082-3.767 7.347-8.476 7.347z" fill="#e6e6e6"/><path class="st58" d="M566.5 602.104h-23.547c-1.883 0-3.296-1.225-3.296-2.857v-10.205c0-1.633 1.413-2.857 3.296-2.857H566.5c1.884 0 3.297 1.224 3.297 2.857v10.205c-.471 1.632-1.884 2.857-3.297 2.857zm-.943 27.756h-22.604c-1.883 0-3.296-1.224-3.296-2.857v-18.776c0-1.633 1.413-2.858 3.296-2.858h22.604c1.884 0 3.297 1.225 3.297 2.858v18.776c-.471 1.633-1.884 2.857-3.297 2.857zm16.012 27.757h-38.616c-1.883 0-3.296-1.225-3.296-2.857v-18.777c0-1.633 1.413-2.857 3.296-2.857h38.616c1.883 0 3.296 1.224 3.296 2.857v18.777c0 1.632-1.413 2.857-3.296 2.857zm7.534 27.348h-46.15c-1.883 0-3.296-1.224-3.296-2.857v-18.776c0-1.633 1.413-2.858 3.296-2.858h46.15c1.884 0 3.297 1.225 3.297 2.858v18.776c0 1.633-1.413 2.857-3.297 2.857zm-15.07 27.349h-31.08c-1.883 0-3.296-1.225-3.296-2.858V690.68c0-1.633 1.413-2.857 3.296-2.857h31.08c1.885 0 3.297 1.224 3.297 2.857v18.776c0 1.633-1.412 2.858-3.296 2.858zm-8.947 31.43h-22.133c-1.883 0-3.296-1.225-3.296-2.858v-22.45c0-1.632 1.413-2.857 3.296-2.857h22.133c1.884 0 3.297 1.225 3.297 2.857v22.45c0 1.633-1.413 2.858-3.297 2.858zm33.436 0h-22.133c-1.884 0-3.297-1.225-3.297-2.858v-22.45c0-1.632 1.413-2.857 3.297-2.857h22.133c1.883 0 3.296 1.225 3.296 2.857v22.45c0 1.633-1.413 2.858-3.296 2.858zm32.493 0h-22.133c-1.884 0-3.297-1.225-3.297-2.858v-22.45c0-1.632 1.413-2.857 3.297-2.857h22.133c1.884 0 3.296 1.225 3.296 2.857v22.45c0 1.633-1.412 2.858-3.296 2.858zm40.028 0h-29.668c-1.883 0-3.296-1.225-3.296-2.858v-22.45c0-1.632 1.413-2.857 3.296-2.857h29.668c1.884 0 3.296 1.225 3.296 2.857v22.45c0 1.633-1.412 2.858-3.296 2.858zm163.409 0H681.874c-1.884 0-3.296-1.225-3.296-2.858v-22.45c0-1.632 1.412-2.857 3.296-2.857h152.578c1.883 0 3.296 1.225 3.296 2.857v22.45c0 1.633-1.413 2.858-3.296 2.858zm41.911 0h-30.61c-1.883 0-3.296-1.225-3.296-2.858v-22.45c0-1.632 1.413-2.857 3.297-2.857h30.61c1.883 0 3.296 1.225 3.296 2.857v22.45c0 1.633-1.413 2.858-3.297 2.858zm32.494 0h-22.134c-1.883 0-3.296-1.225-3.296-2.858v-22.45c0-1.632 1.413-2.857 3.296-2.857h22.134c1.883 0 3.296 1.225 3.296 2.857v22.45c0 1.633-1.413 2.858-3.296 2.858zm97.95-31.43h-62.16c-1.884 0-3.297-1.225-3.297-2.858V690.68c0-1.633 1.413-2.857 3.296-2.857h62.162c1.883 0 3.296 1.224 3.296 2.857v18.776c-.47 1.633-1.884 2.858-3.296 2.858zM598.052 629.86h-22.604c-1.884 0-3.297-1.224-3.297-2.857v-18.776c0-1.633 1.413-2.858 3.297-2.858h22.604c1.883 0 3.296 1.225 3.296 2.858v18.776c0 1.633-1.413 2.857-3.296 2.857zm32.493 0h-22.133c-1.884 0-3.296-1.224-3.296-2.857v-18.776c0-1.633 1.412-2.858 3.296-2.858h22.604c1.884 0 3.296 1.225 3.296 2.858v18.776c-.47 1.633-1.883 2.857-3.767 2.857zm32.964 0h-22.133c-1.883 0-3.296-1.224-3.296-2.857v-18.776c0-1.633 1.413-2.858 3.296-2.858h22.604c1.884 0 3.297 1.225 3.297 2.858v18.776c-.471 1.633-1.884 2.857-3.768 2.857zm34.377 0h-22.604c-1.883 0-3.296-1.224-3.296-2.857v-18.776c0-1.633 1.413-2.858 3.296-2.858h22.604c1.884 0 3.297 1.225 3.297 2.858v18.776c0 1.633-1.413 2.857-3.297 2.857zm32.965 0h-22.604c-1.884 0-3.297-1.224-3.297-2.857v-18.776c0-1.633 1.413-2.858 3.297-2.858h22.604c1.883 0 3.296 1.225 3.296 2.858v18.776c0 1.633-1.413 2.857-3.296 2.857zm32.493 0h-22.604c-1.884 0-3.297-1.224-3.297-2.857v-18.776c0-1.633 1.413-2.858 3.297-2.858h22.604c1.884 0 3.296 1.225 3.296 2.858v18.776c0 1.633-1.412 2.857-3.296 2.857zm32.964 0h-22.604c-1.884 0-3.296-1.224-3.296-2.857v-18.776c0-1.633 1.412-2.858 3.296-2.858h22.604c1.884 0 3.297 1.225 3.297 2.858v18.776c0 1.633-1.413 2.857-3.297 2.857zm31.552 0h-22.604c-1.884 0-3.297-1.224-3.297-2.857v-18.776c0-1.633 1.413-2.858 3.297-2.858h22.604c1.883 0 3.296 1.225 3.296 2.858v18.776c0 1.633-1.413 2.857-3.296 2.857zM615.004 657.21H592.4c-1.884 0-3.297-1.225-3.297-2.858v-18.368c0-1.633 1.413-2.857 3.297-2.857h22.604c1.883 0 3.296 1.224 3.296 2.857v18.777c0 1.224-1.413 2.449-3.296 2.449zm32.964 0h-22.604c-1.884 0-3.296-1.225-3.296-2.858v-18.368c0-1.633 1.412-2.857 3.296-2.857h22.604c1.884 0 3.296 1.224 3.296 2.857v18.777c-.47 1.224-1.883 2.449-3.296 2.449zm32.493 0h-22.604c-1.883 0-3.296-1.225-3.296-2.858v-18.368c0-1.633 1.413-2.857 3.296-2.857h22.604c1.884 0 3.297 1.224 3.297 2.857v18.777c0 1.224-1.413 2.449-3.297 2.449zm32.965 0h-22.604c-1.884 0-3.297-1.225-3.297-2.858v-18.368c0-1.633 1.413-2.857 3.297-2.857h22.604c1.883 0 3.296 1.224 3.296 2.857v18.777c-.47 1.224-1.884 2.449-3.296 2.449zm33.906 0h-22.604c-1.884 0-3.297-1.225-3.297-2.858v-18.368c0-1.633 1.413-2.857 3.297-2.857h22.604c1.883 0 3.296 1.224 3.296 2.857v18.777c0 1.224-1.413 2.449-3.296 2.449zm32.964 0h-22.604c-1.884 0-3.296-1.225-3.296-2.858v-18.368c0-1.633 1.412-2.857 3.296-2.857h22.604c1.884 0 3.296 1.224 3.296 2.857v18.777c0 1.224-1.412 2.449-3.296 2.449zm32.493 0h-22.604c-1.883 0-3.296-1.225-3.296-2.858v-18.368c0-1.633 1.413-2.857 3.296-2.857h22.604c1.884 0 3.297 1.224 3.297 2.857v18.777c0 1.224-1.413 2.449-3.297 2.449zm32.965 0H823.15c-1.884 0-3.297-1.225-3.297-2.858v-18.368c0-1.633 1.413-2.857 3.297-2.857h22.604c1.883 0 3.296 1.224 3.296 2.857v18.777c0 1.224-1.413 2.449-3.296 2.449zm31.551 0h-22.604c-1.884 0-3.296-1.225-3.296-2.858v-18.368c0-1.633 1.412-2.857 3.296-2.857h22.604c1.884 0 3.297 1.224 3.297 2.857v18.777c0 1.224-1.413 2.449-3.297 2.449zm32.493 0h-22.604c-1.883 0-3.296-1.225-3.296-2.858v-18.368c0-1.633 1.413-2.857 3.296-2.857h22.604c1.884 0 3.297 1.224 3.297 2.857v18.777c0 1.224-1.413 2.449-3.297 2.449zm32.965 0h-22.604c-1.884 0-3.297-1.225-3.297-2.858v-18.368c0-1.633 1.413-2.857 3.297-2.857h22.604c1.883 0 3.296 1.224 3.296 2.857v18.777c0 1.224-1.884 2.449-3.296 2.449zm31.551 0H951.71c-1.884 0-3.296-1.225-3.296-2.858v-18.368c0-1.633 1.412-2.857 3.296-2.857h22.604c1.884 0 3.297 1.224 3.297 2.857v18.777c0 1.224-1.413 2.449-3.297 2.449zM623.01 684.965h-22.604c-1.883 0-3.296-1.224-3.296-2.857v-18.776c0-1.633 1.413-2.858 3.296-2.858h22.604c1.884 0 3.297 1.225 3.297 2.858v18.776c0 1.633-1.884 2.857-3.297 2.857zm32.965 0H633.37c-1.884 0-3.297-1.224-3.297-2.857v-18.776c0-1.633 1.413-2.858 3.297-2.858h22.604c1.883 0 3.296 1.225 3.296 2.858v18.776c-.47 1.633-1.884 2.857-3.296 2.857zm32.493 0h-22.604c-1.884 0-3.297-1.224-3.297-2.857v-18.776c0-1.633 1.413-2.858 3.297-2.858h22.604c1.884 0 3.296 1.225 3.296 2.858v18.776c-.47 1.633-1.883 2.857-3.296 2.857zm32.964 0h-22.604c-1.883 0-3.296-1.224-3.296-2.857v-18.776c0-1.633 1.413-2.858 3.296-2.858h22.604c1.884 0 3.297 1.225 3.297 2.858v18.776c-.471 1.633-1.884 2.857-3.297 2.857zm33.906 0h-22.604c-1.883 0-3.296-1.224-3.296-2.857v-18.776c0-1.633 1.413-2.858 3.296-2.858h22.604c1.884 0 3.297 1.225 3.297 2.858v18.776c0 1.633-1.413 2.857-3.297 2.857zm32.965 0h-22.604c-1.884 0-3.297-1.224-3.297-2.857v-18.776c0-1.633 1.413-2.858 3.297-2.858h22.604c1.883 0 3.296 1.225 3.296 2.858v18.776c0 1.633-1.413 2.857-3.296 2.857zm32.493 0H798.19c-1.884 0-3.297-1.224-3.297-2.857v-18.776c0-1.633 1.413-2.858 3.297-2.858h22.604c1.884 0 3.296 1.225 3.296 2.858v18.776c0 1.633-1.412 2.857-3.296 2.857zm32.964 0h-22.604c-1.884 0-3.296-1.224-3.296-2.857v-18.776c0-1.633 1.412-2.858 3.296-2.858h22.604c1.884 0 3.297 1.225 3.297 2.858v18.776c0 1.633-1.413 2.857-3.297 2.857zm31.552 0h-22.604c-1.884 0-3.297-1.224-3.297-2.857v-18.776c0-1.633 1.413-2.858 3.297-2.858h22.604c1.883 0 3.296 1.225 3.296 2.858v18.776c0 1.633-1.413 2.857-3.296 2.857zm32.493 0H895.2c-1.884 0-3.296-1.224-3.296-2.857v-18.776c0-1.633 1.412-2.858 3.296-2.858h22.604c1.884 0 3.296 1.225 3.296 2.858v18.776c0 1.633-1.412 2.857-3.296 2.857zm32.964 0h-22.604c-1.883 0-3.296-1.224-3.296-2.857v-18.776c0-1.633 1.413-2.858 3.296-2.858h22.604c1.884 0 3.297 1.225 3.297 2.858v18.776c-.471 1.633-1.884 2.857-3.297 2.857zm-344.712 27.349h-22.604c-1.883 0-3.296-1.225-3.296-2.858V690.68c0-1.633 1.413-2.857 3.296-2.857h22.604c1.884 0 3.297 1.224 3.297 2.857v18.776c0 1.633-1.413 2.858-3.297 2.858zm32.965 0h-22.604c-1.884 0-3.297-1.225-3.297-2.858V690.68c0-1.633 1.413-2.857 3.297-2.857h22.604c1.883 0 3.296 1.224 3.296 2.857v18.776c0 1.633-1.413 2.858-3.296 2.858zm32.493 0H648.91c-1.884 0-3.297-1.225-3.297-2.858V690.68c0-1.633 1.413-2.857 3.297-2.857h22.604c1.884 0 3.296 1.224 3.296 2.857v18.776c0 1.633-1.412 2.858-3.296 2.858zm32.964 0h-22.604c-1.884 0-3.296-1.225-3.296-2.858V690.68c0-1.633 1.412-2.857 3.296-2.857h22.604c1.884 0 3.297 1.224 3.297 2.857v18.776c0 1.633-1.413 2.858-3.297 2.858zm34.377 0h-22.604c-1.884 0-3.296-1.225-3.296-2.858V690.68c0-1.633 1.412-2.857 3.296-2.857h22.604c1.884 0 3.297 1.224 3.297 2.857v18.776c-.471 1.633-1.884 2.858-3.297 2.858zm32.964 0h-22.604c-1.883 0-3.296-1.225-3.296-2.858V690.68c0-1.633 1.413-2.857 3.296-2.857h22.604c1.884 0 3.297 1.224 3.297 2.857v18.776c-.471 1.633-1.884 2.858-3.297 2.858zm32.494 0h-22.604c-1.884 0-3.297-1.225-3.297-2.858V690.68c0-1.633 1.413-2.857 3.297-2.857h22.604c1.883 0 3.296 1.224 3.296 2.857v18.776c-.47 1.633-1.883 2.858-3.296 2.858zm32.493 0h-22.604c-1.884 0-3.296-1.225-3.296-2.858V690.68c0-1.633 1.412-2.857 3.296-2.857h22.604c1.884 0 3.297 1.224 3.297 2.857v18.776c0 1.633-1.413 2.858-3.297 2.858zm32.023 0h-22.604c-1.884 0-3.297-1.225-3.297-2.858V690.68c0-1.633 1.413-2.857 3.297-2.857h22.604c1.883 0 3.296 1.224 3.296 2.857v18.776c-.47 1.633-1.884 2.858-3.296 2.858zm32.022 0h-22.604c-1.884 0-3.296-1.225-3.296-2.858V690.68c0-1.633 1.412-2.857 3.296-2.857h22.604c1.884 0 3.296 1.224 3.296 2.857v18.776c0 1.633-1.412 2.858-3.296 2.858zm32.964 0h-22.604c-1.883 0-3.296-1.225-3.296-2.858V690.68c0-1.633 1.413-2.857 3.296-2.857h22.604c1.884 0 3.297 1.224 3.297 2.857v18.776c0 1.633-1.413 2.858-3.297 2.858zm48.505-27.349h-22.604c-1.884 0-3.297-1.224-3.297-2.857v-18.776c0-1.633 1.413-2.858 3.297-2.858h22.604c1.883 0 3.296 1.225 3.296 2.858v18.776c0 1.633-1.883 2.857-3.296 2.857zM860.823 629.86h-22.604c-1.884 0-3.297-1.224-3.297-2.857v-18.776c0-1.633 1.413-2.858 3.297-2.858h22.604c1.884 0 3.296 1.225 3.296 2.858v18.776c0 1.633-1.412 2.857-3.296 2.857zm32.493 0h-22.604c-1.883 0-3.296-1.224-3.296-2.857v-18.776c0-1.633 1.413-2.858 3.296-2.858h22.604c1.884 0 3.297 1.225 3.297 2.858v18.776c0 1.633-1.413 2.857-3.297 2.857zm32.965 0h-22.604c-1.884 0-3.297-1.224-3.297-2.857v-18.776c0-1.633 1.413-2.858 3.297-2.858h22.604c1.883 0 3.296 1.225 3.296 2.858v18.776c0 1.633-1.413 2.857-3.296 2.857zm34.377 0h-22.604c-1.884 0-3.297-1.224-3.297-2.857v-18.776c0-1.633 1.413-2.858 3.297-2.858h22.604c1.883 0 3.296 1.225 3.296 2.858v18.776c-.47 1.633-1.884 2.857-3.296 2.857zm47.562 0h-37.202c-1.884 0-3.297-1.224-3.297-2.857v-18.776c0-1.633 1.413-2.858 3.297-2.858h37.202c1.884 0 3.297 1.225 3.297 2.858v18.776c-.471 1.633-1.884 2.857-3.297 2.857zm-407.815-27.756H576.86c-1.883 0-3.296-1.225-3.296-2.857v-10.205c0-1.633 1.413-2.857 3.296-2.857h23.546c1.884 0 3.297 1.224 3.297 2.857v10.205c0 1.632-1.413 2.857-3.297 2.857zm33.906 0h-23.545c-1.884 0-3.297-1.225-3.297-2.857v-10.205c0-1.633 1.413-2.857 3.297-2.857h23.545c1.884 0 3.297 1.224 3.297 2.857v10.205c0 1.632-1.413 2.857-3.297 2.857zm33.907 0h-23.546c-1.884 0-3.297-1.225-3.297-2.857v-10.205c0-1.633 1.413-2.857 3.297-2.857h23.546c1.883 0 3.296 1.224 3.296 2.857v10.205c0 1.632-1.413 2.857-3.296 2.857zm33.906 0h-23.546c-1.884 0-3.297-1.225-3.297-2.857v-10.205c0-1.633 1.413-2.857 3.297-2.857h23.546c1.883 0 3.296 1.224 3.296 2.857v10.205c0 1.632-1.413 2.857-3.296 2.857zm33.906 0h-23.546c-1.884 0-3.297-1.225-3.297-2.857v-10.205c0-1.633 1.413-2.857 3.297-2.857h23.546c1.883 0 3.296 1.224 3.296 2.857v10.205c0 1.632-1.413 2.857-3.296 2.857zm33.906 0H746.39c-1.884 0-3.297-1.225-3.297-2.857v-10.205c0-1.633 1.413-2.857 3.297-2.857h23.546c1.883 0 3.296 1.224 3.296 2.857v10.205c0 1.632-1.413 2.857-3.296 2.857zm34.377 0h-23.546c-1.884 0-3.297-1.225-3.297-2.857v-10.205c0-1.633 1.413-2.857 3.297-2.857h23.546c1.883 0 3.296 1.224 3.296 2.857v10.205c0 1.632-1.413 2.857-3.296 2.857zm33.906 0h-23.546c-1.884 0-3.296-1.225-3.296-2.857v-10.205c0-1.633 1.412-2.857 3.296-2.857h23.546c1.884 0 3.296 1.224 3.296 2.857v10.205c0 1.632-1.412 2.857-3.296 2.857zm34.377 0H849.05c-1.884 0-3.296-1.225-3.296-2.857v-10.205c0-1.633 1.412-2.857 3.296-2.857h23.546c1.884 0 3.296 1.224 3.296 2.857v10.205c0 1.632-1.412 2.857-3.296 2.857zm33.906 0h-23.546c-1.884 0-3.296-1.225-3.296-2.857v-10.205c0-1.633 1.412-2.857 3.296-2.857h23.546c1.884 0 3.296 1.224 3.296 2.857v10.205c-.47 1.632-1.883 2.857-3.296 2.857zm33.906 0h-23.546c-1.883 0-3.296-1.225-3.296-2.857v-10.205c0-1.633 1.413-2.857 3.296-2.857h23.546c1.884 0 3.297 1.224 3.297 2.857v10.205c0 1.632-1.413 2.857-3.297 2.857zm33.906 0h-23.546c-1.883 0-3.296-1.225-3.296-2.857v-10.205c0-1.633 1.413-2.857 3.296-2.857h23.546c1.884 0 3.297 1.224 3.297 2.857v10.205c0 1.632-1.413 2.857-3.297 2.857zm33.906 0h-23.546c-1.883 0-3.296-1.225-3.296-2.857v-10.205c0-1.633 1.413-2.857 3.296-2.857h23.546c1.884 0 3.297 1.224 3.297 2.857v10.205c-.471 1.632-1.884 2.857-3.297 2.857z" fill="#adadad"/><path class="st58" d="M1006.808 633.126h-20.72c-1.885 0-3.768 1.224-3.768 3.265v17.552c0 1.633 1.413 3.266 3.767 3.266h4.71v24.49c0 1.634 1.412 3.266 3.767 3.266h12.244c1.883 0 3.767-1.224 3.767-3.265V636.39c0-2.04-1.413-3.265-3.767-3.265zM941.82 743.744h-22.133c-1.884 0-2.826-1.225-2.826-2.45v-8.98c0-1.632 1.413-2.448 2.826-2.448h22.133c1.884 0 2.825 1.224 2.825 2.449v8.98c0 1.632-1.412 2.449-2.825 2.449zm65.928 0h-22.133c-1.883 0-2.825-1.225-2.825-2.45v-8.98c0-1.632 1.412-2.448 2.825-2.448h22.133c1.884 0 2.826 1.224 2.826 2.449v8.98c0 1.632-1.413 2.449-2.826 2.449zm-34.848 0h-17.894c-2.826 0-5.18-2.041-5.18-4.49v-9.797h28.255v9.797c0 2.857-2.355 4.49-5.18 4.49zm-18.365-28.573h17.895c2.825 0 5.18 2.04 5.18 4.49v9.796h-28.255v-9.796c.47-2.45 2.354-4.49 5.18-4.49z" fill="#adadad"/></g><g stroke-width=".293"><path class="st1" d="M1109.772 684.442l-10.509 2.7c-10.232 2.63-21.854-7.026-25.715-22.049l-10.06-39.138c-4.877-18.976 2.048-36.77 15.046-40.112 13.274-3.411 27.746 9.306 32.522 27.886l10.059 39.138c4.414 14.881-.834 28.873-11.343 31.575z" opacity=".5" fill="#ccc"/><path d="M1104.856 680.226l-10.51 2.701c-10.231 2.63-21.853-7.026-25.714-22.05l-10.06-39.137c-4.877-18.976 2.048-36.771 15.046-40.112 13.274-3.412 27.746 9.305 32.521 27.886l10.06 39.138c4.414 14.88-1.11 28.944-11.343 31.574z" fill="#b0b1b3"/><path d="M1095.232 664.577c-.553.142-1.31-.506-1.512-1.297l-15.852-61.672c-.203-.79.147-1.723.7-1.866.553-.142 1.31.507 1.513 1.297l15.851 61.673c.203.79.13 1.652-.7 1.865z" fill="#a3a4a6"/><path d="M1087.205 633.346c-1.66.426-3.55-1.195-4.16-3.567l-4.166-16.209c-.61-2.372.265-4.704 1.925-5.13 1.659-.427 3.55 1.195 4.16 3.567l4.165 16.208c.61 2.372-.265 4.704-1.924 5.13z" fill="#a0a1a3"/></g><g stroke-width=".293"><path class="st48" d="M846.658 385.244H699.605c-6.567-57.146-13.42-114.7-19.988-171.846h187.314c-7.138 57.554-13.706 114.7-20.273 171.846z" fill="#e6e6e6"/><path class="st56" d="M806.968 243.196H691.895c-1.427 0-2.855-1.633-3.14-3.674-.286-2.04.856-3.674 2.284-3.674h116.215c1.427 0 2.57 1.633 2.57 3.674s-1.428 3.674-2.856 3.674zm31.98 13.47H693.323c-1.428 0-2.57-1.633-2.855-3.266-.286-2.04.856-3.265 2.284-3.265h147.053c1.428 0 2.284 1.633 2.284 3.265-.57 2.041-1.713 3.266-3.14 3.266zm-80.807 13.062h-63.39c-1.428 0-2.856-1.633-2.856-3.674-.285-2.04.857-3.674 2.285-3.674h64.246c1.428 0 2.57 1.633 2.57 3.674-.285 2.04-1.428 3.674-2.855 3.674zm1.713 81.636h-56.537c-1.142 0-2.57-1.632-2.57-3.673-.285-2.041.571-3.674 1.999-3.674h57.108c1.142 0 2.284 1.633 2.284 3.674 0 2.04-1.142 3.673-2.284 3.673zm42.26 0h-33.98c-1.142 0-2.284-1.632-2.284-3.673 0-2.041.857-3.674 2.285-3.674h34.264c1.143 0 2.285 1.633 2 3.674.285 2.04-.857 3.673-2.285 3.673zm-3.712-68.166h-102.51c-1.427 0-2.569-1.633-2.854-3.674-.286-2.04.856-3.674 2.284-3.674h103.365c1.428 0 2.57 1.633 2.285 3.674 0 2.041-1.143 3.674-2.57 3.674zm36.834 14.694H697.321c-1.428 0-2.57-1.632-2.856-3.265-.285-2.041.571-3.266 1.999-3.266h139.058c1.428 0 2.284 1.633 1.999 3.266.285 2.04-.857 3.265-2.285 3.265zm-14.848 13.062h-121.64c-1.427 0-2.57-1.632-2.855-3.673-.286-2.041.571-3.674 1.999-3.674h122.782c1.428 0 2.284 1.633 2.284 3.674 0 2.04-1.142 3.673-2.57 3.673zm-23.414 13.47h-96.798c-1.428 0-2.57-1.632-2.855-3.673-.286-2.041.57-3.674 1.998-3.674h97.655c1.428 0 2.284 1.633 2.284 3.674.286 2.04-.856 3.673-2.284 3.673zm-.285 14.287h-94.8c-1.142 0-2.57-1.633-2.57-3.674-.285-2.04.571-3.674 2-3.674h95.655c1.428 0 2.284 1.633 2.284 3.674-.285 2.041-1.427 3.674-2.57 3.674z" fill="#594080"/></g><path d="M553.442 510.528c0 .817-.571 1.225-.857 1.225h-11.421c-.571 0-.857-.817-.857-1.225 0-.816.57-1.224.857-1.224h11.42c.287 0 .858.816.858 1.224z" fill="#d2d1d4"/><path class="st60" d="M438.088 567.398c-.334.136-.668.271-.92.463.281 2.61 1.395 5.061 3.32 6.854.334-.136.586-.327.92-.463zM466.185 556.34l72.544-35.124 1.22 2.52-72.544 35.124z" fill="#30363d"/><path class="st60" d="M440.584 573.33c-.734-1.589-1.524-3.094-2.34-4.738 1.058-.49 1.977-.952 3.036-1.442a7.663 7.663 0 0 1 2.341 4.737c-1.058.49-2.06.897-3.037 1.442z" fill="#30363d"/><path class="st108" d="M437.714 567.283l99.872-48.444 3.491 7.198-99.871 48.443z" opacity=".3" fill="#e5e8ec"/><path class="st108" d="M541.069 526.058l-.708-1.449-99.912 48.386.734 1.588z" opacity=".3" fill="#e5e8ec"/><path class="st108" d="M440.398 572.948l99.888-48.409.349.72-99.888 48.409zM438.221 568.43l99.945-48.292.348.72-99.945 48.292z" opacity=".3" fill="#e5e8ec"/><path class="st109" d="M558.45 509.218c-7.42 1.484-22.68 7.915-39.57 16.745-1.644.817-3.205 1.69-4.766 2.563l.598 1.253z" fill="#484f59"/><path class="st60" d="M553.445 510.53l-39.03 18.442.38.864 43.737-20.562c-1.472.208-3.113.664-5.087 1.256z" fill="#30363d"/><path class="st60" d="M539.328 528.261l1.757-.982c12.99-7.008 24.122-13.949 30.347-18.301-.598-1.254-1.17-2.369-1.769-3.622-7.204 2.235-19.533 6.669-33.095 12.561-.668.272-1.198.516-1.866.787z" fill="#30363d"/><path class="st109" d="M561.667 512.132c3.232-1.55 6.186-3.049 9.084-4.464-.245-.53-.463-.92-.708-1.449a1138.315 1138.315 0 0 0-9.11 4.325c-11.2 5.443-20.704 10.348-24.273 12.395l.245.529c3.814-1.518 13.48-5.949 24.762-11.336z" fill="#484f59"/><path class="st60" d="M538.905 529.061l-4.98-10.28.724-.354 4.98 10.28z" fill="#30363d"/><path class="st109" d="M536.448 522.885l.45-.218 2.88 5.938-.45.218zM440.584 573.33c-.734-1.589-1.524-3.094-2.34-4.738 1.058-.49 1.977-.952 3.036-1.442a7.663 7.663 0 0 1 2.341 4.737c-1.058.49-2.06.897-3.037 1.442z" fill="#484f59"/><path class="st60" d="M441.607 567.736c-1.058.49-1.978.952-3.036 1.442.109.195.244.529.353.724 1.059-.49 2.174-1.061 3.232-1.55-.109-.196-.357-.365-.549-.616zm1.578 3.37c-.92.464-1.979.953-2.898 1.416.109.195.135.334.245.53.92-.464 1.978-.953 2.897-1.416z" fill="#30363d"/><path class="st92" d="M327.85 745.581c-37.592 6.79-73.563-18.52-80.424-56.505-6.86-37.985 18.082-74.297 55.576-81.069 37.59-6.79 73.563 18.52 80.424 56.505 6.86 37.986-17.984 74.28-55.576 81.07z" fill="#cdd5d7"/><path class="st91" d="M327.566 744.007c-37.592 6.79-73.51-18.224-80.282-55.718-6.79-37.592 18.224-73.51 55.718-80.282 37.59-6.79 73.51 18.225 80.28 55.718 6.773 37.493-18.125 73.492-55.716 80.282z" fill="#e5e8ec"/><path class="st92" d="M325.469 732.395c-31.196 5.634-61.055-15.089-66.69-46.284-5.634-31.195 15.09-61.054 46.284-66.688 31.196-5.635 61.054 15.088 66.689 46.283 5.652 31.294-15.088 61.054-46.284 66.69z" fill="#cdd5d7"/><path class="st92" d="M368.149 664.325c3.034-9.084 4.556-18.098 4.718-26.765-14.786-22.226-41.855-34.815-69.9-29.75-3.445.623-6.738 1.522-9.995 2.62-5.168 6.826-9.498 14.925-12.532 24.01-11.48 33.777-1.25 67.902 22.997 76.123 24.265 8.32 53.135-12.442 64.712-46.238z" fill="#cdd5d7"/><path class="st98" d="M368.149 664.325c.664-1.95 1.23-3.88 1.778-5.91-8.636-26.995-36.11-44.084-64.846-38.894-8.364 1.511-15.9 4.803-22.416 9.231-.78 1.87-1.56 3.737-2.225 5.686-11.48 33.78-1.25 67.904 22.997 76.125 24.265 8.32 53.135-12.442 64.712-46.238z" fill="#b7bec0"/><path d="M322.5 715.961c-22.142 4-43.287-10.676-47.286-32.818-4-22.142 10.676-43.287 32.818-47.286 22.142-4 43.287 10.676 47.286 32.818 3.999 22.141-10.676 43.286-32.818 47.286z" class="st91" fill="#ececec"/><path d="M322.109 713.796c-20.862 3.768-40.846-10.1-44.614-30.963-3.768-20.863 10.1-40.846 30.963-44.614 20.863-3.769 40.846 10.1 44.614 30.963 3.768 20.862-10.1 40.846-30.963 44.614z" class="st92" fill="#cdd5d7"/><path d="M321.949 712.91c-20.37 3.68-39.89-9.867-43.568-30.237-3.68-20.37 9.867-39.89 30.237-43.569 20.37-3.679 39.89 9.867 43.569 30.238 3.679 20.37-9.868 39.89-30.238 43.568z" class="st103" fill="#140906"/><path d="M307.386 645.221c18.894-3.413 37.019 9.166 40.43 28.06.179.984.258 1.986.454 3.07a31.788 31.788 0 0 0-.512-6.209c-3.235-17.91-20.43-29.844-38.34-26.61-5.806 1.05-11.032 3.62-15.276 7.13 3.894-2.635 8.323-4.553 13.244-5.44z" fill="#584e4d"/><path d="M302.312 662.701c-8.266 1.493-15.194 5.894-19.978 12.043-.083 2.352.049 4.767.475 7.13 3.235 17.91 20.43 29.843 38.34 26.608 8.266-1.493 15.194-5.895 19.978-12.043.083-2.352-.048-4.767-.475-7.13-3.235-17.91-20.43-29.843-38.34-26.608z" fill="#3f3534"/><path d="M339.882 697.985c-4.19 2.687-9.03 4.578-14.148 5.502-18.008 3.253-35.367-6.212-42.898-22.026l.054.296c3.235 17.91 20.43 29.843 38.34 26.61 7.479-1.352 13.905-5.155 18.652-10.382z" class="st106" fill="#5e5452"/><path d="M325.629 639.893c-5.364-1.57-11.124-1.954-17.028-.887-3.642.658-6.997 1.772-10.067 3.342.197-.035.296-.053.475-.187 5.654-1.326 3.792-.38 11.075-1.695 6.02-.986 11.62-1.49 15.545-.573zm23.85 26.28c.534 2.952 4.215 6.453-.728 19.032-4.942 12.58-2.168 11.062-6.313 14.554-2.033 1.688-3.02 4.102-4.408 5.98 10.806-8.253 16.734-22.128 14.139-36.496-2.542-14.072-12.62-24.853-25.368-29.053.429.125.876.35 1.207.493 3.825 2.053 11.548 6.552 13.663 10.946 2.248 4.573 7.276 11.591 7.81 14.543zm-27.53 46.737a37.487 37.487 0 0 0 12.008-4.404c-1.163.311-2.576.363-4.338.173-9.14-1.092-8.27 4.848-20.01 2.294-5.491-1.143-19.67-6.508-23.234-11.047-3.564-4.539-3.113-7.668-4.02-12.687-.906-5.02-.04-4.16-2.732-11.193-.393-1.047-1.107-1.629-1.93-1.683-.11 2.763.074 5.473.59 8.327 3.777 20.353 23.296 33.9 43.666 30.22z" fill="#7c633d"/><path d="M327.103 711.065a1.11 1.11 0 0 1-1.278-.887 1.11 1.11 0 0 1 .887-1.278 1.11 1.11 0 0 1 1.278.887 1.11 1.11 0 0 1-.887 1.278zm-2.46-.674c-.294.053-.643-.189-.696-.484-.053-.295.189-.644.484-.697.295-.053.644.19.697.484.053.295-.19.644-.484.697zm-2.423.641c-.296.053-.644-.188-.698-.484-.053-.295.189-.643.484-.697.295-.053.644.19.697.484.054.295-.188.644-.483.697zm21.63-57.46c-.294.054-.643-.188-.696-.483-.053-.296.188-.644.484-.698.295-.053.643.19.697.484.07.394-.19.644-.484.697zm6.42 32.171c-.294.054-.642-.188-.696-.483-.053-.296.189-.644.484-.697.295-.054.644.188.697.483-.045.313-.188.644-.484.697zm-1.451 3.21c-.296.053-.644-.189-.697-.484-.054-.295.188-.644.483-.697.296-.053.644.188.697.484.072.393-.188.643-.483.697zm-67.417-4.184c-.296.053-.644-.189-.698-.484-.053-.295.189-.644.484-.697.295-.053.644.19.697.484.054.295-.188.644-.483.697zm32.408 28.087c-.295.053-.644-.189-.697-.484-.054-.295.188-.644.484-.697.295-.053.643.19.697.484.053.295-.19.644-.484.697zm-8.343-1.745c-.295.053-.644-.189-.697-.484-.054-.295.188-.644.484-.697.295-.053.643.19.697.484.07.394-.19.644-.484.697zm19.347-.344a.215.215 0 0 1-.233-.16.215.215 0 0 1 .162-.234.215.215 0 0 1 .232.161.215.215 0 0 1-.161.233zm-9.894 1.482a.215.215 0 0 1-.233-.16.215.215 0 0 1 .16-.234.215.215 0 0 1 .234.162.215.215 0 0 1-.161.232zm2.387.28a.215.215 0 0 1-.232-.16.215.215 0 0 1 .16-.234.215.215 0 0 1 .234.162.215.215 0 0 1-.162.232zm27.776-56.639a.215.215 0 0 1-.233-.16.215.215 0 0 1 .16-.233.215.215 0 0 1 .234.161c-.08.116-.063.215-.161.232zm-2.643-4.502a.215.215 0 0 1-.232-.16.215.215 0 0 1 .16-.233.215.215 0 0 1 .234.16c-.063.216-.063.216-.162.233zm6.045 9.274a.215.215 0 0 1-.233-.162.215.215 0 0 1 .162-.232.215.215 0 0 1 .232.161c-.08.116-.063.215-.161.233zm1.61 22.98a.215.215 0 0 1-.232-.162.215.215 0 0 1 .16-.232.215.215 0 0 1 .233.16.215.215 0 0 1-.161.233zm.56 2.54a.215.215 0 0 1-.232-.16.215.215 0 0 1 .16-.234.215.215 0 0 1 .234.162.215.215 0 0 1-.162.232zm-1.888 1.357a.215.215 0 0 1-.233-.16.215.215 0 0 1 .162-.233.215.215 0 0 1 .232.161.215.215 0 0 1-.161.232zm-.174 2.98a.215.215 0 0 1-.232-.163.215.215 0 0 1 .16-.232.215.215 0 0 1 .233.161c.036.197-.062.215-.16.233zm-1.03.49a.215.215 0 0 1-.231-.16.215.215 0 0 1 .16-.234.215.215 0 0 1 .233.161.215.215 0 0 1-.161.232zm.384 1.556c-.197.036-.313-.045-.35-.242-.034-.197.046-.313.243-.348.197-.036.313.045.349.242.018.098-.045.313-.242.348zm-2.845-37.694c-.197.035-.313-.045-.35-.242-.035-.197.046-.313.243-.349.197-.035.313.045.349.242.017.1-.046.313-.242.35zm4.15 7.786c-.197.036-.313-.045-.35-.242-.034-.197.046-.313.243-.348.197-.036.313.045.349.241.035.197-.046.313-.242.35zm.48 2.657c-.197.036-.313-.045-.35-.242-.034-.197.046-.313.243-.348.197-.036.313.045.348.242.036.196-.045.313-.241.348zm1.876 17.14c-.197.035-.313-.046-.35-.242-.034-.197.046-.313.243-.349.197-.035.313.045.349.242.035.197-.045.313-.242.348zm-44.433 28.552a.215.215 0 0 1-.232-.162.215.215 0 0 1 .16-.232.215.215 0 0 1 .234.161c.035.197-.063.215-.162.233zm-3.523-.38a.215.215 0 0 1-.233-.16.215.215 0 0 1 .162-.234.215.215 0 0 1 .232.162.215.215 0 0 1-.161.232zm-23.332-26.78a.215.215 0 0 1-.232-.16.215.215 0 0 1 .16-.233.215.215 0 0 1 .234.161.215.215 0 0 1-.162.232zm1.285 2.614a.215.215 0 0 1-.232-.162.215.215 0 0 1 .16-.232.215.215 0 0 1 .234.161.215.215 0 0 1-.162.233zm-2.11-8.867a.215.215 0 0 1-.232-.16.215.215 0 0 1 .162-.233.215.215 0 0 1 .232.161.215.215 0 0 1-.161.232zm1.8 5.468a.215.215 0 0 1-.231-.162.215.215 0 0 1 .16-.232.215.215 0 0 1 .233.161.215.215 0 0 1-.16.233z" class="st103" fill="#140906"/><path d="M327.158 710.242a.43.43 0 0 1-.465-.323.43.43 0 0 1 .323-.464.43.43 0 0 1 .464.322.43.43 0 0 1-.322.465z" class="st106" fill="#5e5452"/><path d="M280.304 682.63a1.11 1.11 0 0 1-1.278-.887 1.11 1.11 0 0 1 .887-1.278 1.11 1.11 0 0 1 1.278.887 1.11 1.11 0 0 1-.887 1.278z" class="st103" fill="#140906"/><path d="M280.359 681.807a.43.43 0 0 1-.465-.322.43.43 0 0 1 .322-.465.43.43 0 0 1 .465.322.43.43 0 0 1-.323.465z" class="st106" fill="#5e5452"/><path d="M346.529 658.271a1.11 1.11 0 0 1-1.278-.887 1.11 1.11 0 0 1 .887-1.278 1.11 1.11 0 0 1 1.278.887c.008.608-.297 1.172-.887 1.278z" class="st103" fill="#140906"/><path d="M346.485 657.467a.43.43 0 0 1-.465-.323.43.43 0 0 1 .323-.465.43.43 0 0 1 .464.322.43.43 0 0 1-.322.465z" class="st106" fill="#5e5452"/><path d="M347.67 660.097c-.392.071-.857-.25-.928-.645-.071-.394.25-.858.645-.93.394-.07.858.252.93.646a.789.789 0 0 1-.646.93z" class="st103" fill="#140906"/><path d="M347.663 659.49c-.197.034-.313-.046-.348-.243-.036-.197.045-.313.242-.349.196-.035.313.046.348.242.036.197-.045.313-.242.35z" class="st106" fill="#5e5452"/><g transform="translate(139.699 582.738)" class="st119" clip-path="url(#a)"><path class="st92" d="M-71.1 373.8c-.6 1.6.3 1.2 1.2 1.5l5.5 2.1c.9.3 1.3 1.2 1.9-.4l49.3-130.5c.6-1.6-.3-1.2-1.2-1.5l-5.5-2.1c-.9-.3-1.3-1.2-1.9.4z" fill="#cdd5d7"/><path class="st98" d="M-69.438 375.57l49.999-132.479 1.778.671-50 132.48zM-20.6 242.6c-.5-.3-.8-.4-1.2.7l-49.3 130.5c-.4 1.1-.1 1.3.4 1.4z" fill="#b7bec0"/><path class="st91" d="M-68.472 375.895l50.057-132.457 1.777.672-50.057 132.457z" fill="#e5e8ec"/><path class="st96" d="M65.9 275.3l-78.4-29.6c-1.6-.6-3.4.2-3.9 1.8l-48 127.3c-.6 1.6.2 3.4 1.8 3.9l78.4 29.6c1.6.6 3.3-.2 3.9-1.8l48-127.3c.6-1.5-.2-3.3-1.8-3.9z" fill="#282d33"/><path class="st60" d="M-12.5 245.7l78.4 29.6c1.6.6 2.4 2.4 1.8 3.9l-48 127.3c-.6 1.6-2.4 2.4-3.9 1.8l-78.4-29.6c-1.6-.6-2.4-2.4-1.8-3.9l48-127.3c.5-1.6 2.3-2.4 3.9-1.8zm-44 122.5c1.4.5 2.9-.2 3.4-1.5.5-1.4-.2-2.9-1.5-3.4-1.4-.5-2.9.2-3.4 1.5s.2 2.9 1.5 3.4zm3.7-9.9c1.4.5 2.9-.2 3.4-1.5.5-1.4-.2-2.9-1.5-3.4-1.4-.5-2.9.2-3.4 1.5s.2 2.9 1.5 3.4zm3.8-9.9c1.4.5 2.9-.2 3.4-1.5.5-1.4-.2-2.9-1.5-3.4-1.4-.5-2.9.2-3.4 1.5-.6 1.4.1 2.9 1.5 3.4zm3.7-9.9c1.4.5 2.9-.2 3.4-1.5.5-1.4-.2-2.9-1.5-3.4-1.4-.5-2.9.2-3.4 1.5-.5 1.4.2 2.9 1.5 3.4zm3.7-9.9c1.4.5 2.9-.2 3.4-1.5.5-1.4-.2-2.9-1.5-3.4-1.4-.5-2.9.2-3.4 1.5-.5 1.4.2 2.9 1.5 3.4zm3.8-9.9c1.4.5 2.9-.2 3.4-1.5s-.2-2.9-1.5-3.4c-1.4-.5-2.9.2-3.4 1.5-.6 1.4.1 2.9 1.5 3.4zm3.7-9.9c1.4.5 2.9-.2 3.4-1.5.5-1.4-.2-2.9-1.5-3.4-1.4-.5-2.9.2-3.4 1.5-.5 1.4.2 2.9 1.5 3.4zm3.8-9.9c1.4.5 2.9-.2 3.4-1.5.5-1.4-.2-2.9-1.5-3.4-1.4-.5-2.9.2-3.4 1.5-.6 1.4.1 2.9 1.5 3.4zm3.7-9.9c1.4.5 2.9-.2 3.4-1.5.5-1.4-.2-2.9-1.5-3.4-1.4-.5-2.9.2-3.4 1.5-.5 1.4.1 2.9 1.5 3.4zm3.7-9.9c1.4.5 2.9-.2 3.4-1.5.5-1.4-.2-2.9-1.5-3.4-1.4-.5-2.9.2-3.4 1.5-.5 1.4.2 2.9 1.5 3.4zm3.8-9.9c1.4.5 2.9-.2 3.4-1.5.5-1.4-.2-2.9-1.5-3.4-1.4-.5-2.9.2-3.4 1.5-.6 1.4.1 2.9 1.5 3.4zm3.7-9.9c1.4.5 2.9-.2 3.4-1.5.5-1.4-.2-2.9-1.5-3.4-1.4-.5-2.9.2-3.4 1.5-.5 1.4.1 2.9 1.5 3.4z" fill="#30363d"/><path class="st109" d="M-12.4 245.3L66 274.9c1.6.6 2.4 2.4 1.8 3.9l-48 127.3c-.6 1.6-2.4 2.4-3.9 1.8l-78.4-29.6c-1.6-.6-2.4-2.4-1.8-3.9l48-127.3c.6-1.6 2.3-2.4 3.9-1.8zm-43.9 122.5c1.4.5 2.9-.2 3.4-1.5.5-1.4-.2-2.9-1.5-3.4-1.4-.5-2.9.2-3.4 1.5-.6 1.3.1 2.9 1.5 3.4zm3.7-9.9c1.4.5 2.9-.2 3.4-1.5.5-1.4-.2-2.9-1.5-3.4-1.4-.5-2.9.2-3.4 1.5-.5 1.4.1 2.9 1.5 3.4zm3.7-9.9c1.4.5 2.9-.2 3.4-1.5.5-1.4-.2-2.9-1.5-3.4-1.4-.5-2.9.2-3.4 1.5-.5 1.4.2 2.9 1.5 3.4zm3.8-9.9c1.4.5 2.9-.2 3.4-1.5.5-1.4-.2-2.9-1.5-3.4-1.4-.5-2.9.2-3.4 1.5-.6 1.4.1 2.9 1.5 3.4zm3.7-9.9c1.4.5 2.9-.2 3.4-1.5.5-1.4-.2-2.9-1.5-3.4-1.4-.5-2.9.2-3.4 1.5-.5 1.4.1 2.9 1.5 3.4zm3.7-9.9c1.4.5 2.9-.2 3.4-1.5.5-1.4-.2-2.9-1.5-3.4-1.4-.5-2.9.2-3.4 1.5-.5 1.4.2 2.9 1.5 3.4zm3.8-9.9c1.4.5 2.9-.2 3.4-1.5.5-1.4-.2-2.9-1.5-3.4-1.4-.5-2.9.2-3.4 1.5-.6 1.4.1 2.9 1.5 3.4zm3.7-9.9c1.4.5 2.9-.2 3.4-1.5.5-1.4-.2-2.9-1.5-3.4-1.4-.5-2.9.2-3.4 1.5-.5 1.4.1 2.9 1.5 3.4zm3.7-9.9c1.4.5 2.9-.2 3.4-1.5.5-1.4-.2-2.9-1.5-3.4-1.4-.5-2.9.2-3.4 1.5-.5 1.4.2 2.9 1.5 3.4zm3.8-9.9c1.4.5 2.9-.2 3.4-1.5.5-1.4-.2-2.9-1.5-3.4-1.4-.5-2.9.2-3.4 1.5-.6 1.4.1 2.9 1.5 3.4zm3.7-9.9c1.4.5 2.9-.2 3.4-1.5.5-1.4-.2-2.9-1.5-3.4-1.4-.5-2.9.2-3.4 1.5-.5 1.4.2 2.9 1.5 3.4zm3.7-9.9c1.4.5 2.9-.2 3.4-1.5.5-1.4-.2-2.9-1.5-3.4-1.4-.5-2.9.2-3.4 1.5-.5 1.4.2 2.9 1.5 3.4z" fill="#484f59"/><path class="st92" d="M-12.6 257.1c-.4 1.1-1.2 1.7-1.7 1.5l-7.1-2.7c-.6-.2-.7-1.2-.3-2.3.4-1.1 1.2-1.7 1.7-1.5l7.1 2.7c.5.2.7 1.2.3 2.3z" fill="#cdd5d7"/><path class="st91" d="M-12.9 254.8l-6.4-2.4c-.3.3-.7.7-.9 1.3-.4 1.1-.3 2.1.3 2.3l5 1.9c.6.2 1.3-.5 1.7-1.5.3-.6.4-1.2.3-1.6z" fill="#e5e8ec"/><path class="st98" d="M-19.2 253.5c.1-.4.3-.7.5-1l-1.2-.5h-.1c-.3.3-.7.7-.9 1.3-.4 1.1-.3 2.1.3 2.3l1 .4h.1c-.2-.6 0-1.5.3-2.5z" fill="#b7bec0"/><path class="st92" d="M-16.4 267c-.4 1.1-1.2 1.7-1.7 1.5l-7.1-2.7c-.6-.2-.7-1.2-.3-2.3.4-1.1 1.2-1.7 1.7-1.5l7.1 2.7c.6.2.7 1.2.3 2.3z" fill="#cdd5d7"/><path class="st91" d="M-16.7 264.7l-6.4-2.4c-.3.3-.7.7-.9 1.3-.4 1.1-.3 2.1.3 2.3l5 1.9c.6.2 1.3-.5 1.7-1.5.4-.6.4-1.2.3-1.6z" fill="#e5e8ec"/><path class="st98" d="M-22.9 263.5c.1-.4.3-.7.5-1l-1.2-.5h-.1c-.3.3-.7.7-.9 1.3-.4 1.1-.3 2.1.3 2.3l1 .4h.1c-.2-.7-.1-1.6.3-2.5z" fill="#b7bec0"/><path class="st92" d="M-20.1 276.9c-.4 1.1-1.2 1.7-1.7 1.5l-7.1-2.7c-.6-.2-.7-1.2-.3-2.3.4-1.1 1.2-1.7 1.7-1.5l7.1 2.7c.6.2.7 1.2.3 2.3z" fill="#cdd5d7"/><path class="st91" d="M-20.4 274.6l-6.4-2.4c-.3.3-.7.7-.9 1.3-.4 1.1-.3 2.1.3 2.3l5 1.9c.6.2 1.3-.5 1.7-1.5.3-.6.4-1.2.3-1.6z" fill="#e5e8ec"/><path class="st98" d="M-26.7 273.4c.1-.4.3-.7.5-1l-1.2-.5h-.1c-.3.3-.7.7-.9 1.3-.4 1.1-.3 2.1.3 2.3l1 .4h.1c-.1-.7 0-1.6.3-2.5z" fill="#b7bec0"/><path class="st92" d="M-23.9 286.8c-.4 1.1-1.2 1.7-1.7 1.5l-7.1-2.7c-.6-.2-.7-1.2-.3-2.3.4-1.1 1.2-1.7 1.7-1.5l7.1 2.7c.6.2.7 1.2.3 2.3z" fill="#cdd5d7"/><path class="st91" d="M-24.1 284.5l-6.4-2.4c-.3.3-.7.7-.9 1.3-.4 1.1-.3 2.1.3 2.3l5 1.9c.6.2 1.3-.5 1.7-1.5.3-.6.3-1.2.3-1.6z" fill="#e5e8ec"/><path class="st98" d="M-30.4 283.3c.1-.4.3-.7.5-1l-1.2-.5h-.1c-.3.3-.7.7-.9 1.3-.4 1.1-.3 2.1.3 2.3l1 .4h.1c-.2-.7-.1-1.6.3-2.5z" fill="#b7bec0"/><path class="st92" d="M-27.6 296.7c-.4 1.1-1.2 1.7-1.7 1.5l-7.1-2.7c-.6-.2-.7-1.2-.3-2.3.4-1.1 1.2-1.7 1.7-1.5l7.1 2.7c.6.2.7 1.3.3 2.3z" fill="#cdd5d7"/><path class="st91" d="M-27.9 294.4l-6.4-2.4c-.3.3-.7.7-.9 1.3-.4 1.1-.3 2.1.3 2.3l5 1.9c.6.2 1.3-.5 1.7-1.5.3-.6.4-1.2.3-1.6z" fill="#e5e8ec"/><path class="st98" d="M-34.2 293.2c.1-.4.3-.7.5-1l-1.2-.5h-.1c-.3.3-.7.7-.9 1.3-.4 1.1-.3 2.1.3 2.3l1 .4h.1c-.1-.7 0-1.6.3-2.5z" fill="#b7bec0"/><path class="st92" d="M-31.3 306.6c-.4 1.1-1.2 1.7-1.7 1.5l-7.1-2.7c-.6-.2-.7-1.2-.3-2.3.4-1.1 1.2-1.7 1.7-1.5l7.1 2.7c.5.2.7 1.3.3 2.3z" fill="#cdd5d7"/><path class="st91" d="M-31.6 304.3l-6.4-2.4c-.3.3-.7.7-.9 1.3-.4 1.1-.3 2.1.3 2.3l5 1.9c.6.2 1.3-.5 1.7-1.5.3-.6.3-1.1.3-1.6z" fill="#e5e8ec"/><path class="st98" d="M-37.9 303.1c.1-.3.3-.7.5-1l-1.2-.5h-.1c-.3.3-.7.7-.9 1.3-.4 1.1-.3 2.1.3 2.3l1 .4h.1c-.2-.7 0-1.6.3-2.5z" fill="#b7bec0"/><path class="st92" d="M-35.1 316.5c-.4 1.1-1.2 1.7-1.7 1.5l-7.1-2.7c-.6-.2-.7-1.2-.3-2.3.4-1.1 1.2-1.7 1.7-1.5l7.1 2.7c.6.3.7 1.3.3 2.3z" fill="#cdd5d7"/><path class="st91" d="M-35.4 314.2l-6.4-2.4c-.3.3-.7.7-.9 1.3-.4 1.1-.3 2.1.3 2.3l5 1.9c.6.2 1.3-.5 1.7-1.5.3-.6.4-1.1.3-1.6z" fill="#e5e8ec"/><path class="st98" d="M-41.6 313c.1-.3.3-.7.5-1l-1.2-.5h-.1c-.3.3-.7.7-.9 1.3-.4 1.1-.3 2.1.3 2.3l1 .4h.1c-.2-.7-.1-1.6.3-2.5z" fill="#b7bec0"/><g><path class="st92" d="M-38.8 326.4c-.4 1.1-1.2 1.7-1.7 1.5l-7.1-2.7c-.6-.2-.7-1.2-.3-2.3.4-1.1 1.2-1.7 1.7-1.5l7.1 2.7c.6.3.7 1.3.3 2.3z" fill="#cdd5d7"/><path class="st91" d="M-39.1 324.2l-6.4-2.4c-.3.3-.7.7-.9 1.3-.4 1.1-.3 2.1.3 2.3l5 1.9c.6.2 1.3-.5 1.7-1.5.3-.7.4-1.2.3-1.6z" fill="#e5e8ec"/><path class="st98" d="M-45.4 322.9c.1-.4.3-.7.5-1l-1.2-.5h-.1c-.3.3-.7.7-.9 1.3-.4 1.1-.3 2.1.3 2.3l1 .4h.1c-.1-.7 0-1.6.3-2.5z" fill="#b7bec0"/></g><g><path class="st92" d="M-42.6 336.4c-.4 1.1-1.2 1.7-1.7 1.5l-7.1-2.7c-.6-.2-.7-1.2-.3-2.3.4-1.1 1.2-1.7 1.7-1.5l7.1 2.7c.6.2.7 1.2.3 2.3z" fill="#cdd5d7"/><path class="st91" d="M-42.9 334.1l-6.4-2.4c-.3.3-.7.7-.9 1.3-.4 1.1-.3 2.1.3 2.3l5 1.9c.6.2 1.3-.5 1.7-1.5.4-.6.4-1.2.3-1.6z" fill="#e5e8ec"/><path class="st98" d="M-49.1 332.8c.1-.4.3-.7.5-1l-1.2-.5h-.1c-.3.3-.7.7-.9 1.3-.4 1.1-.3 2.1.3 2.3l1 .4h.1c-.2-.7-.1-1.6.3-2.5z" fill="#b7bec0"/></g><g><path class="st92" d="M-46.3 346.3c-.4 1.1-1.2 1.7-1.7 1.5l-7.1-2.7c-.6-.2-.7-1.2-.3-2.3.4-1.1 1.2-1.7 1.7-1.5l7.1 2.7c.6.2.7 1.2.3 2.3z" fill="#cdd5d7"/><path class="st91" d="M-46.6 344l-6.4-2.4c-.3.3-.7.7-.9 1.3-.4 1.1-.3 2.1.3 2.3l5 1.9c.6.2 1.3-.5 1.7-1.5.3-.6.4-1.2.3-1.6z" fill="#e5e8ec"/><path class="st98" d="M-52.9 342.7c.1-.4.3-.7.5-1l-1.2-.5h-.1c-.3.3-.7.7-.9 1.3-.4 1.1-.3 2.1.3 2.3l1 .4h.1c-.1-.6 0-1.5.3-2.5z" fill="#b7bec0"/></g><g><path class="st92" d="M-50 356.2c-.4 1.1-1.2 1.7-1.7 1.5l-7.1-2.7c-.6-.2-.7-1.2-.3-2.3.4-1.1 1.2-1.7 1.7-1.5l7.1 2.7c.5.2.7 1.2.3 2.3z" fill="#cdd5d7"/><path class="st91" d="M-50.3 353.9l-6.4-2.4c-.3.3-.7.7-.9 1.3-.4 1.1-.3 2.1.3 2.3l5 1.9c.6.2 1.3-.5 1.7-1.5.3-.6.3-1.2.3-1.6z" fill="#e5e8ec"/><path class="st98" d="M-56.6 352.7c.1-.4.3-.7.5-1l-1.2-.5h-.1c-.3.3-.7.7-.9 1.3-.4 1.1-.3 2.1.3 2.3l1 .4h.1c-.2-.7-.1-1.6.3-2.5z" fill="#b7bec0"/></g><g><path class="st92" d="M-53.8 366.1c-.4 1.1-1.2 1.7-1.7 1.5l-7.1-2.7c-.6-.2-.7-1.2-.3-2.3.4-1.1 1.2-1.7 1.7-1.5l7.1 2.7c.6.2.7 1.2.3 2.3z" fill="#cdd5d7"/><path class="st91" d="M-54.1 363.8l-6.4-2.4c-.3.3-.7.7-.9 1.3-.4 1.1-.3 2.1.3 2.3l5 1.9c.6.2 1.3-.5 1.7-1.5.3-.6.4-1.2.3-1.6z" fill="#e5e8ec"/><path class="st98" d="M-60.3 362.6c.1-.4.3-.7.5-1l-1.2-.5h-.1c-.3.3-.7.7-.9 1.3-.4 1.1-.3 2.1.3 2.3l1 .4h.1c-.2-.7-.1-1.6.3-2.5z" fill="#b7bec0"/></g></g><g transform="translate(139.699 582.738)" class="st119" clip-path="url(#a)"><path class="st95" d="M35.875 298.904l4.523-5.211 4.003 3.474-4.523 5.21z" fill="#474f59"/><path class="st93" d="M40.2 294l4 3.4 2.8-3.2-5.1-2.2z" fill="#01bacc"/><path class="st125" d="M40.9 294l3.1 2.7 1.9-2.2-3.8-1.8z" fill="#01c6da"/><path class="st96" d="M39.1 315.6c-3-2.6-.1-10.8 2.5-13.7l2.8-3.3c-1.8-1.6-3.7-3.2-5.5-4.8l-2.8 3.2c-2.6 3-10.3 7-13.3 4.4l-.4-.4c-.2 0-.8.4-1 .4 7.1 6.1 10.8 9.4 17.8 15.5 0-.3.3-.8.3-1.1-.1 0-.2-.1-.4-.2z" fill="#282d33"/><path class="st93" d="M19 304.4c.8-1 2.2-1.1 3.1-.3 4.8 4.2 9.7 8.4 14.5 12.7.9.8 1 2.2.2 3.1C22.6 335 8.3 350.2-5.9 365.3c-.8.9-2.1 1.1-2.8.5l-11.4-9.9c-.7-.6-.7-1.9.1-2.9 12.9-16.2 26-32.4 39-48.6z" fill="#01bacc"/><path d="M-13.6 361.6c1.6 1.4 3.2 2.8 4.9 4.2.7.6 2 .4 2.8-.5 14.3-15.2 28.5-30.3 42.8-45.5.8-.9.8-2.3-.2-3.1l-4.5-3.9c-15.3 16.3-30.6 32.5-45.8 48.8z" fill="#01b0c1"/><path class="st93" d="M17.5 314.3c-1 .1-2.5 1.1-3.3 2-10.9 13-22 26.5-33.3 40.3 3.4 2.9 6.7 5.8 10.1 8.8 12.1-13.1 23.9-25.9 35.3-38.5.8-.9 1.6-2.5 1.5-3.5-.3-5.5-4.9-9.5-10.3-9.1z" fill="#01bacc"/><path class="st125" d="M16.9 314.3c-1 .1-2.5 1-3.2 2C3 329-7.9 342.2-19 355.8c3.4 2.9 6.7 5.8 10.1 8.8 11.9-12.9 23.5-25.5 34.7-37.8.8-.9 1.6-2.5 1.5-3.5-.4-5.3-5.1-9.3-10.4-9z" fill="#01c6da"/><path class="st96" d="M18.723 304.683l2.757-3.168 17.804 15.49-2.756 3.17z" fill="#282d33"/><path class="st60" d="M32.187 316.347l2.755-3.17 3.774 3.28-2.756 3.17zM35.153 312.855l.197-.226 3.319 2.888-.197.226z" fill="#30363d"/><path class="st109" d="M24.19 303.363l.198-.226 3.32 2.888-.198.226zM24.765 303.311l.197-.226 4.678 4.069-.197.226z" fill="#484f59"/><path class="st109" d="M25.2 304.3c4-.3 9.7-4.3 11.9-7.2l2.2-2.9c-.1-.1-.2-.2-.4-.3l-2.8 3.2c-2.6 3-10.3 7-13.3 4.4l-.4-.4c-.1 0-.4.2-.6.3zm11 7c.2-3.3 2.4-7.9 4.3-10l2.8-3.3c-.3-.2-.6-.5-.8-.7l-2.8 3.3c-1.5 1.7-3.2 5.1-3.9 8-.1 1 .1 1.9.4 2.7z" fill="#484f59"/><path class="st60" d="M35.6 303.5s-.8-1.2-1.6-1.6c-.4-.2-5.6 2-4.9 3.5.7 1.4 2.9 2.7 3.9 1.6 1.1-1 2.6-3.5 2.6-3.5z" fill="#30363d"/></g><rect width="2.747" height="17.706" x="314.32" y="714.632" ry="1.721" rx="1.721" fill="#ececec" fill-rule="evenodd"/></svg>