<svg xmlns="http://www.w3.org/2000/svg" width="664.089" height="588.343" viewBox="0 0 175.707 155.666">
<g transform="translate(-59.285 -104.247)">
<path d="M131.773 228.586a29.572 41.38 62.695 0 1-3.287 16.913 29.572 41.38 62.695 0 1-7.431 10.301h51.788a41.38 29.572 27.305 0 1-7.433-10.301 41.38 29.572 27.305 0 1-3.282-16.913z"
 fill="#a7a7a7"/><path d="M131.773 228.587a29.572 41.38 62.695 0 1-.986 11.009h32.303a41.38 29.572 27.305 0 1-.962-11.01z" opacity=".203"/>
 <rect ry="15.277" rx="15.277" y="128.119" x="59.285" height="106.185" width="175.329" fill="#b3b3b3"/>
 <path d="M74.94 128.308a15.244 15.244 0 0 0-15.277 15.277v76.485h175.329v-76.485a15.244 15.244 0 0 0-15.278-15.277z" fill="#1a1a1a"/>
 <path fill="#d7eef4" d="M68.33 135.353h157.994v77.672H68.33z"/><rect rx="3.213" ry="3.213" y="253.487" x="111.608" height="6.426" width="70.682" fill="#b3b3b3"/>
 <path fill="#f2f2f2" d="M77.971 104.247h138.713v108.779H77.971z"/><path fill="#b6dae2" d="M85.142 108.725h44.601v44.601H85.142z"/>
 <circle r="19.511" cy="131.026" cx="107.442" fill="#b7c4c8"/><path fill="#b6dae2" d="M85.142 155.783h44.601v3.176H85.142z"/>
 <path fill="#b6dae2" d="M85.142 155.783h44.601v3.176H85.142zM85.142 162.465h44.601v3.176H85.142zM85.142 169.147h44.601v3.176H85.142z"/>
 <path fill="#ccc" d="M135.224 108.725h74.839v71.06h-74.839z"/><circle cx="107.442" cy="131.026" r="19.511" fill="#b7c4c8"/>
 <path fill="#999" d="M137.869 111.371h12.095v12.095h-12.095z"/><circle r="5.291" cy="117.418" cx="143.917" fill="#d8d8d8"/>
 <path fill="#999" d="M154.365 115.83h52.352v3.176h-52.352zM137.869 125.948h69.356v45.97h-69.356zM137.869 174.139h69.356v2.881h-69.356z"/>
 <circle r="15.164" cy="148.933" cx="172.548" fill="#87cdde"/>
 <path d="M180.437 148.933c0 2.124-10.422 8.141-12.261 7.08-1.84-1.063-1.84-13.098 0-14.16 1.839-1.062 12.261 4.956 12.261 7.08z" opacity=".574" fill="#f9f9f9"/>
 <path d="M135.224 183.564v29.461h74.839v-29.46z" fill="#ccc"/><path fill="#999" d="M137.869 186.21h12.095v12.095h-12.095z"/><circle cx="143.917" cy="192.258" r="5.291" fill="#d8d8d8"/>
<path fill="#999" d="M154.365 190.67h52.352v3.176h-52.352zM137.869 201.271h69.356v2.881h-69.356zM137.869 206.617h69.356v2.881h-69.356z"/></g></svg>