<svg xmlns="http://www.w3.org/2000/svg" width="1" viewBox="0 0 175.707 156.085"><path d="M72.488 124.758a29.572 41.38 62.695 0 1-3.287 16.913 29.572 41.38 62.695 0 1-7.431 10.3h51.788a41.38 29.572 27.305 0 1-7.433-10.3 41.38 29.572 27.305 0 1-3.282-16.913z" fill="#a7a7a7"/><path d="M72.488 124.759a29.572 41.38 62.695 0 1-.986 11.009h32.303a41.38 29.572 27.305 0 1-.962-11.01z" opacity=".203"/><rect ry="15.277" rx="15.277" y="24.291" height="106.185" width="175.329" fill="#b3b3b3"/><path d="M15.655 24.48A15.244 15.244 0 0 0 .378 39.757v76.485h175.329V39.757a15.244 15.244 0 0 0-15.278-15.277z" fill="#1a1a1a"/><path d="M9.045 31.525h157.994v77.672H9.045z" fill="#d7eef4"/><rect rx="3.213" ry="3.213" y="149.659" x="52.323" height="6.426" width="70.682" fill="#b3b3b3"/><path d="M19.105 0h138.713v108.779H19.105z" fill="#f2f2f2"/><path d="M26.585 4.874h74.84v71.083h-74.84z" fill="#ccc"/><path d="M29.23 7.543h12.095v12.095H29.23z" fill="#999"/><circle r="5.291" cy="13.59" cx="35.278" fill="#d8d8d8"/><path d="M45.726 12.002h52.352v3.176H45.726zM29.23 22.12h69.356v45.97H29.23zm0 48.19h69.356v2.882H29.23z" fill="#999"/><circle r="15.164" cy="45.105" cx="63.909" fill="#b380ff"/><path d="M71.798 45.105c0 2.124-10.422 8.14-12.26 7.08-1.84-1.063-1.84-13.098 0-14.16 1.838-1.062 12.26 4.956 12.26 7.08z" opacity=".574" fill="#f9f9f9"/><path d="M106.8 4.875h44.6v71.083h-44.6z" fill="#caf"/><path d="M110.023 8.713h12.095v12.095h-12.095z" fill="#999"/><circle r="5.291" cy="14.76" cx="116.07" fill="#d8d8d8"/><path d="M110.01 24.099h38.18v2.719h-38.18zm0 5.72h38.18v2.719h-38.18zm0 5.72h38.18v2.719h-38.18zM110.01 41.797h38.18v2.72h-38.18zm0 5.72h38.18v2.72h-38.18zm0 5.72h38.18v2.72h-38.18z" fill="#b6dae2"/><path d="M123.052 61.024h12.095v12.095h-12.095z" fill="#999"/><circle cx="129.1" cy="67.071" r="5.291" fill="#d8d8d8"/><path opacity=".326" fill="#b380ff" fill-rule="evenodd" d="M26.541 79.883h125.185v29.275H26.541z"/><path d="M51.6 86.055a19.511 19.511 0 0 0-19.511 19.511 19.511 19.511 0 0 0 .338 3.561h38.342a19.511 19.511 0 0 0 .341-3.56A19.511 19.511 0 0 0 51.6 86.054z" fill="#b7c4c8"/><path d="M75.694 88.561h70.007v2.719H75.694zm0 5.72h70.007V97H75.694zm0 5.72h70.007v2.719H75.694z" fill="#b6dae2"/></svg>